<mxfile host="app.diagrams.net" modified="2021-04-26T16:37:24.746Z" agent="5.0 (Macintosh; Intel Mac OS X 10_15_6) AppleWebKit/605.1.15 (KHTML, like Gecko) Version/14.0.3 Safari/605.1.15" etag="Z_7gFPwqGUuwCss1sp8h" version="14.6.6" type="github" pages="2">
  <diagram id="7j2-q1rqtHFgxDNsSS_T" name="table-relations">
    <mxGraphModel dx="2330" dy="2377" grid="1" gridSize="10" guides="1" tooltips="1" connect="1" arrows="1" fold="1" page="1" pageScale="1" pageWidth="827" pageHeight="1169" math="0" shadow="0">
      <root>
        <mxCell id="0" />
        <mxCell id="1" parent="0" />
        <mxCell id="tYt1xrvJ3s9ZFV79zrZ--5" value="Lekarze" style="shape=table;startSize=40;container=1;collapsible=1;childLayout=tableLayout;fixedRows=3;rowLines=0;fontStyle=1;align=center;resizeLast=1;" parent="1" vertex="1">
          <mxGeometry x="20" y="-870" width="880" height="210" as="geometry">
            <mxRectangle x="320" y="290" width="60" height="30" as="alternateBounds" />
          </mxGeometry>
        </mxCell>
        <mxCell id="tYt1xrvJ3s9ZFV79zrZ--6" value="" style="shape=partialRectangle;collapsible=0;dropTarget=0;pointerEvents=0;fillColor=none;top=0;left=0;bottom=0;right=0;points=[[0,0.5],[1,0.5]];portConstraint=eastwest;" parent="tYt1xrvJ3s9ZFV79zrZ--5" vertex="1">
          <mxGeometry y="40" width="880" height="40" as="geometry" />
        </mxCell>
        <mxCell id="tYt1xrvJ3s9ZFV79zrZ--18" value="ID" style="shape=partialRectangle;connectable=0;fillColor=#9AC7BF;top=0;left=0;bottom=0;right=0;fontStyle=1;overflow=hidden;" parent="tYt1xrvJ3s9ZFV79zrZ--6" vertex="1">
          <mxGeometry width="80" height="40" as="geometry" />
        </mxCell>
        <mxCell id="tYt1xrvJ3s9ZFV79zrZ--7" value="Imię" style="shape=partialRectangle;connectable=0;fillColor=none;top=0;left=0;bottom=0;right=0;fontStyle=1;overflow=hidden;" parent="tYt1xrvJ3s9ZFV79zrZ--6" vertex="1">
          <mxGeometry x="80" width="100" height="40" as="geometry" />
        </mxCell>
        <mxCell id="tYt1xrvJ3s9ZFV79zrZ--8" value="Nazwisko" style="shape=partialRectangle;connectable=0;fillColor=none;top=0;left=0;bottom=0;right=0;align=left;spacingLeft=6;fontStyle=5;overflow=hidden;" parent="tYt1xrvJ3s9ZFV79zrZ--6" vertex="1">
          <mxGeometry x="180" width="130" height="40" as="geometry" />
        </mxCell>
        <mxCell id="tYt1xrvJ3s9ZFV79zrZ--22" value="Specializacja" style="shape=partialRectangle;connectable=0;fillColor=none;top=0;left=0;bottom=0;right=0;align=left;spacingLeft=6;fontStyle=5;overflow=hidden;" parent="tYt1xrvJ3s9ZFV79zrZ--6" vertex="1">
          <mxGeometry x="310" width="190" height="40" as="geometry" />
        </mxCell>
        <mxCell id="tYt1xrvJ3s9ZFV79zrZ--26" value="Usługi" style="shape=partialRectangle;connectable=0;fillColor=none;top=0;left=0;bottom=0;right=0;align=left;spacingLeft=6;fontStyle=5;overflow=hidden;" parent="tYt1xrvJ3s9ZFV79zrZ--6" vertex="1">
          <mxGeometry x="500" width="190" height="40" as="geometry" />
        </mxCell>
        <mxCell id="tYt1xrvJ3s9ZFV79zrZ--30" value="Rzeczy Personelowe" style="shape=partialRectangle;connectable=0;fillColor=#7EA6E0;top=0;left=0;bottom=0;right=0;align=left;spacingLeft=6;fontStyle=5;overflow=hidden;shadow=0;" parent="tYt1xrvJ3s9ZFV79zrZ--6" vertex="1">
          <mxGeometry x="690" width="190" height="40" as="geometry" />
        </mxCell>
        <mxCell id="tYt1xrvJ3s9ZFV79zrZ--9" value="" style="shape=partialRectangle;collapsible=0;dropTarget=0;pointerEvents=0;fillColor=none;top=0;left=0;bottom=1;right=0;points=[[0,0.5],[1,0.5]];portConstraint=eastwest;" parent="tYt1xrvJ3s9ZFV79zrZ--5" vertex="1">
          <mxGeometry y="80" width="880" height="20" as="geometry" />
        </mxCell>
        <mxCell id="tYt1xrvJ3s9ZFV79zrZ--19" style="shape=partialRectangle;connectable=0;fillColor=none;top=0;left=0;bottom=0;right=0;fontStyle=1;overflow=hidden;" parent="tYt1xrvJ3s9ZFV79zrZ--9" vertex="1">
          <mxGeometry width="80" height="20" as="geometry" />
        </mxCell>
        <mxCell id="tYt1xrvJ3s9ZFV79zrZ--10" value="" style="shape=partialRectangle;connectable=0;fillColor=none;top=0;left=0;bottom=0;right=0;fontStyle=1;overflow=hidden;" parent="tYt1xrvJ3s9ZFV79zrZ--9" vertex="1">
          <mxGeometry x="80" width="100" height="20" as="geometry" />
        </mxCell>
        <mxCell id="tYt1xrvJ3s9ZFV79zrZ--11" value="" style="shape=partialRectangle;connectable=0;fillColor=none;top=0;left=0;bottom=0;right=0;align=left;spacingLeft=6;fontStyle=5;overflow=hidden;" parent="tYt1xrvJ3s9ZFV79zrZ--9" vertex="1">
          <mxGeometry x="180" width="130" height="20" as="geometry" />
        </mxCell>
        <mxCell id="tYt1xrvJ3s9ZFV79zrZ--23" style="shape=partialRectangle;connectable=0;fillColor=none;top=0;left=0;bottom=0;right=0;align=left;spacingLeft=6;fontStyle=5;overflow=hidden;" parent="tYt1xrvJ3s9ZFV79zrZ--9" vertex="1">
          <mxGeometry x="310" width="190" height="20" as="geometry" />
        </mxCell>
        <mxCell id="tYt1xrvJ3s9ZFV79zrZ--27" style="shape=partialRectangle;connectable=0;fillColor=none;top=0;left=0;bottom=0;right=0;align=left;spacingLeft=6;fontStyle=5;overflow=hidden;" parent="tYt1xrvJ3s9ZFV79zrZ--9" vertex="1">
          <mxGeometry x="500" width="190" height="20" as="geometry" />
        </mxCell>
        <mxCell id="tYt1xrvJ3s9ZFV79zrZ--31" style="shape=partialRectangle;connectable=0;fillColor=none;top=0;left=0;bottom=0;right=0;align=left;spacingLeft=6;fontStyle=5;overflow=hidden;" parent="tYt1xrvJ3s9ZFV79zrZ--9" vertex="1">
          <mxGeometry x="690" width="190" height="20" as="geometry" />
        </mxCell>
        <mxCell id="tYt1xrvJ3s9ZFV79zrZ--12" value="" style="shape=partialRectangle;collapsible=0;dropTarget=0;pointerEvents=0;fillColor=none;top=0;left=0;bottom=0;right=0;points=[[0,0.5],[1,0.5]];portConstraint=eastwest;" parent="tYt1xrvJ3s9ZFV79zrZ--5" vertex="1">
          <mxGeometry y="100" width="880" height="56" as="geometry" />
        </mxCell>
        <mxCell id="tYt1xrvJ3s9ZFV79zrZ--20" style="shape=partialRectangle;connectable=0;fillColor=none;top=0;left=0;bottom=0;right=0;editable=1;overflow=hidden;" parent="tYt1xrvJ3s9ZFV79zrZ--12" vertex="1">
          <mxGeometry width="80" height="56" as="geometry" />
        </mxCell>
        <mxCell id="tYt1xrvJ3s9ZFV79zrZ--13" value="" style="shape=partialRectangle;connectable=0;fillColor=none;top=0;left=0;bottom=0;right=0;editable=1;overflow=hidden;" parent="tYt1xrvJ3s9ZFV79zrZ--12" vertex="1">
          <mxGeometry x="80" width="100" height="56" as="geometry" />
        </mxCell>
        <mxCell id="tYt1xrvJ3s9ZFV79zrZ--14" value="" style="shape=partialRectangle;connectable=0;fillColor=none;top=0;left=0;bottom=0;right=0;align=left;spacingLeft=6;overflow=hidden;" parent="tYt1xrvJ3s9ZFV79zrZ--12" vertex="1">
          <mxGeometry x="180" width="130" height="56" as="geometry" />
        </mxCell>
        <mxCell id="tYt1xrvJ3s9ZFV79zrZ--24" value="" style="shape=partialRectangle;connectable=0;fillColor=none;top=0;left=0;bottom=0;right=0;align=left;spacingLeft=6;overflow=hidden;" parent="tYt1xrvJ3s9ZFV79zrZ--12" vertex="1">
          <mxGeometry x="310" width="190" height="56" as="geometry" />
        </mxCell>
        <mxCell id="tYt1xrvJ3s9ZFV79zrZ--28" style="shape=partialRectangle;connectable=0;fillColor=none;top=0;left=0;bottom=0;right=0;align=left;spacingLeft=6;overflow=hidden;" parent="tYt1xrvJ3s9ZFV79zrZ--12" vertex="1">
          <mxGeometry x="500" width="190" height="56" as="geometry" />
        </mxCell>
        <mxCell id="tYt1xrvJ3s9ZFV79zrZ--32" style="shape=partialRectangle;connectable=0;fillColor=none;top=0;left=0;bottom=0;right=0;align=left;spacingLeft=6;overflow=hidden;" parent="tYt1xrvJ3s9ZFV79zrZ--12" vertex="1">
          <mxGeometry x="690" width="190" height="56" as="geometry" />
        </mxCell>
        <mxCell id="tYt1xrvJ3s9ZFV79zrZ--15" value="" style="shape=partialRectangle;collapsible=0;dropTarget=0;pointerEvents=0;fillColor=none;top=0;left=0;bottom=0;right=0;points=[[0,0.5],[1,0.5]];portConstraint=eastwest;" parent="tYt1xrvJ3s9ZFV79zrZ--5" vertex="1">
          <mxGeometry y="156" width="880" height="54" as="geometry" />
        </mxCell>
        <mxCell id="tYt1xrvJ3s9ZFV79zrZ--21" style="shape=partialRectangle;connectable=0;fillColor=none;top=0;left=0;bottom=0;right=0;editable=1;overflow=hidden;" parent="tYt1xrvJ3s9ZFV79zrZ--15" vertex="1">
          <mxGeometry width="80" height="54" as="geometry" />
        </mxCell>
        <mxCell id="tYt1xrvJ3s9ZFV79zrZ--16" value="" style="shape=partialRectangle;connectable=0;fillColor=none;top=0;left=0;bottom=0;right=0;editable=1;overflow=hidden;" parent="tYt1xrvJ3s9ZFV79zrZ--15" vertex="1">
          <mxGeometry x="80" width="100" height="54" as="geometry" />
        </mxCell>
        <mxCell id="tYt1xrvJ3s9ZFV79zrZ--17" value="" style="shape=partialRectangle;connectable=0;fillColor=none;top=0;left=0;bottom=0;right=0;align=left;spacingLeft=6;overflow=hidden;" parent="tYt1xrvJ3s9ZFV79zrZ--15" vertex="1">
          <mxGeometry x="180" width="130" height="54" as="geometry" />
        </mxCell>
        <mxCell id="tYt1xrvJ3s9ZFV79zrZ--25" style="shape=partialRectangle;connectable=0;fillColor=none;top=0;left=0;bottom=0;right=0;align=left;spacingLeft=6;overflow=hidden;" parent="tYt1xrvJ3s9ZFV79zrZ--15" vertex="1">
          <mxGeometry x="310" width="190" height="54" as="geometry" />
        </mxCell>
        <mxCell id="tYt1xrvJ3s9ZFV79zrZ--29" style="shape=partialRectangle;connectable=0;fillColor=none;top=0;left=0;bottom=0;right=0;align=left;spacingLeft=6;overflow=hidden;" parent="tYt1xrvJ3s9ZFV79zrZ--15" vertex="1">
          <mxGeometry x="500" width="190" height="54" as="geometry" />
        </mxCell>
        <mxCell id="tYt1xrvJ3s9ZFV79zrZ--33" style="shape=partialRectangle;connectable=0;fillColor=none;top=0;left=0;bottom=0;right=0;align=left;spacingLeft=6;overflow=hidden;" parent="tYt1xrvJ3s9ZFV79zrZ--15" vertex="1">
          <mxGeometry x="690" width="190" height="54" as="geometry" />
        </mxCell>
        <mxCell id="tYt1xrvJ3s9ZFV79zrZ--63" value="Pelęgniarki" style="shape=table;startSize=40;container=1;collapsible=1;childLayout=tableLayout;fixedRows=3;rowLines=0;fontStyle=1;align=center;resizeLast=1;" parent="1" vertex="1">
          <mxGeometry x="950" y="-870" width="880" height="230" as="geometry">
            <mxRectangle x="320" y="290" width="60" height="30" as="alternateBounds" />
          </mxGeometry>
        </mxCell>
        <mxCell id="tYt1xrvJ3s9ZFV79zrZ--64" value="" style="shape=partialRectangle;collapsible=0;dropTarget=0;pointerEvents=0;fillColor=none;top=0;left=0;bottom=0;right=0;points=[[0,0.5],[1,0.5]];portConstraint=eastwest;" parent="tYt1xrvJ3s9ZFV79zrZ--63" vertex="1">
          <mxGeometry y="40" width="880" height="60" as="geometry" />
        </mxCell>
        <mxCell id="tYt1xrvJ3s9ZFV79zrZ--65" value="ID" style="shape=partialRectangle;connectable=0;fillColor=#9AC7BF;top=0;left=0;bottom=0;right=0;fontStyle=1;overflow=hidden;" parent="tYt1xrvJ3s9ZFV79zrZ--64" vertex="1">
          <mxGeometry width="80" height="60" as="geometry" />
        </mxCell>
        <mxCell id="tYt1xrvJ3s9ZFV79zrZ--66" value="Imię" style="shape=partialRectangle;connectable=0;fillColor=none;top=0;left=0;bottom=0;right=0;fontStyle=1;overflow=hidden;" parent="tYt1xrvJ3s9ZFV79zrZ--64" vertex="1">
          <mxGeometry x="80" width="100" height="60" as="geometry" />
        </mxCell>
        <mxCell id="tYt1xrvJ3s9ZFV79zrZ--67" value="Nazwisko" style="shape=partialRectangle;connectable=0;fillColor=none;top=0;left=0;bottom=0;right=0;align=left;spacingLeft=6;fontStyle=5;overflow=hidden;" parent="tYt1xrvJ3s9ZFV79zrZ--64" vertex="1">
          <mxGeometry x="180" width="130" height="60" as="geometry" />
        </mxCell>
        <mxCell id="tYt1xrvJ3s9ZFV79zrZ--68" value="Usługi" style="shape=partialRectangle;connectable=0;fillColor=none;top=0;left=0;bottom=0;right=0;align=left;spacingLeft=6;fontStyle=5;overflow=hidden;" parent="tYt1xrvJ3s9ZFV79zrZ--64" vertex="1">
          <mxGeometry x="310" width="190" height="60" as="geometry" />
        </mxCell>
        <mxCell id="tYt1xrvJ3s9ZFV79zrZ--69" value="" style="shape=partialRectangle;connectable=0;fillColor=none;top=0;left=0;bottom=0;right=0;align=left;spacingLeft=6;fontStyle=5;overflow=hidden;" parent="tYt1xrvJ3s9ZFV79zrZ--64" vertex="1">
          <mxGeometry x="500" width="190" height="60" as="geometry" />
        </mxCell>
        <mxCell id="tYt1xrvJ3s9ZFV79zrZ--70" value="Rzeczy Personelowe" style="shape=partialRectangle;connectable=0;fillColor=#7EA6E0;top=0;left=0;bottom=0;right=0;align=left;spacingLeft=6;fontStyle=5;overflow=hidden;shadow=0;" parent="tYt1xrvJ3s9ZFV79zrZ--64" vertex="1">
          <mxGeometry x="690" width="190" height="60" as="geometry" />
        </mxCell>
        <mxCell id="tYt1xrvJ3s9ZFV79zrZ--71" value="" style="shape=partialRectangle;collapsible=0;dropTarget=0;pointerEvents=0;fillColor=none;top=0;left=0;bottom=1;right=0;points=[[0,0.5],[1,0.5]];portConstraint=eastwest;" parent="tYt1xrvJ3s9ZFV79zrZ--63" vertex="1">
          <mxGeometry y="100" width="880" height="20" as="geometry" />
        </mxCell>
        <mxCell id="tYt1xrvJ3s9ZFV79zrZ--72" style="shape=partialRectangle;connectable=0;fillColor=none;top=0;left=0;bottom=0;right=0;fontStyle=1;overflow=hidden;" parent="tYt1xrvJ3s9ZFV79zrZ--71" vertex="1">
          <mxGeometry width="80" height="20" as="geometry" />
        </mxCell>
        <mxCell id="tYt1xrvJ3s9ZFV79zrZ--73" value="" style="shape=partialRectangle;connectable=0;fillColor=none;top=0;left=0;bottom=0;right=0;fontStyle=1;overflow=hidden;" parent="tYt1xrvJ3s9ZFV79zrZ--71" vertex="1">
          <mxGeometry x="80" width="100" height="20" as="geometry" />
        </mxCell>
        <mxCell id="tYt1xrvJ3s9ZFV79zrZ--74" value="" style="shape=partialRectangle;connectable=0;fillColor=none;top=0;left=0;bottom=0;right=0;align=left;spacingLeft=6;fontStyle=5;overflow=hidden;" parent="tYt1xrvJ3s9ZFV79zrZ--71" vertex="1">
          <mxGeometry x="180" width="130" height="20" as="geometry" />
        </mxCell>
        <mxCell id="tYt1xrvJ3s9ZFV79zrZ--75" style="shape=partialRectangle;connectable=0;fillColor=none;top=0;left=0;bottom=0;right=0;align=left;spacingLeft=6;fontStyle=5;overflow=hidden;" parent="tYt1xrvJ3s9ZFV79zrZ--71" vertex="1">
          <mxGeometry x="310" width="190" height="20" as="geometry" />
        </mxCell>
        <mxCell id="tYt1xrvJ3s9ZFV79zrZ--77" value="" style="shape=partialRectangle;connectable=0;fillColor=none;top=0;left=0;bottom=0;right=0;align=left;spacingLeft=6;fontStyle=5;overflow=hidden;" parent="tYt1xrvJ3s9ZFV79zrZ--71" vertex="1">
          <mxGeometry x="500" width="190" height="20" as="geometry" />
        </mxCell>
        <mxCell id="tYt1xrvJ3s9ZFV79zrZ--76" style="shape=partialRectangle;connectable=0;fillColor=none;top=0;left=0;bottom=0;right=0;align=left;spacingLeft=6;fontStyle=5;overflow=hidden;shadow=1;" parent="tYt1xrvJ3s9ZFV79zrZ--71" vertex="1">
          <mxGeometry x="690" width="190" height="20" as="geometry" />
        </mxCell>
        <mxCell id="tYt1xrvJ3s9ZFV79zrZ--78" value="" style="shape=partialRectangle;collapsible=0;dropTarget=0;pointerEvents=0;fillColor=none;top=0;left=0;bottom=0;right=0;points=[[0,0.5],[1,0.5]];portConstraint=eastwest;" parent="tYt1xrvJ3s9ZFV79zrZ--63" vertex="1">
          <mxGeometry y="120" width="880" height="56" as="geometry" />
        </mxCell>
        <mxCell id="tYt1xrvJ3s9ZFV79zrZ--79" style="shape=partialRectangle;connectable=0;fillColor=none;top=0;left=0;bottom=0;right=0;editable=1;overflow=hidden;" parent="tYt1xrvJ3s9ZFV79zrZ--78" vertex="1">
          <mxGeometry width="80" height="56" as="geometry" />
        </mxCell>
        <mxCell id="tYt1xrvJ3s9ZFV79zrZ--80" value="" style="shape=partialRectangle;connectable=0;fillColor=none;top=0;left=0;bottom=0;right=0;editable=1;overflow=hidden;" parent="tYt1xrvJ3s9ZFV79zrZ--78" vertex="1">
          <mxGeometry x="80" width="100" height="56" as="geometry" />
        </mxCell>
        <mxCell id="tYt1xrvJ3s9ZFV79zrZ--81" value="" style="shape=partialRectangle;connectable=0;fillColor=none;top=0;left=0;bottom=0;right=0;align=left;spacingLeft=6;overflow=hidden;" parent="tYt1xrvJ3s9ZFV79zrZ--78" vertex="1">
          <mxGeometry x="180" width="130" height="56" as="geometry" />
        </mxCell>
        <mxCell id="tYt1xrvJ3s9ZFV79zrZ--82" value="" style="shape=partialRectangle;connectable=0;fillColor=none;top=0;left=0;bottom=0;right=0;align=left;spacingLeft=6;overflow=hidden;" parent="tYt1xrvJ3s9ZFV79zrZ--78" vertex="1">
          <mxGeometry x="310" width="190" height="56" as="geometry" />
        </mxCell>
        <mxCell id="tYt1xrvJ3s9ZFV79zrZ--83" style="shape=partialRectangle;connectable=0;fillColor=none;top=0;left=0;bottom=0;right=0;align=left;spacingLeft=6;overflow=hidden;" parent="tYt1xrvJ3s9ZFV79zrZ--78" vertex="1">
          <mxGeometry x="500" width="190" height="56" as="geometry" />
        </mxCell>
        <mxCell id="tYt1xrvJ3s9ZFV79zrZ--84" style="shape=partialRectangle;connectable=0;fillColor=none;top=0;left=0;bottom=0;right=0;align=left;spacingLeft=6;overflow=hidden;" parent="tYt1xrvJ3s9ZFV79zrZ--78" vertex="1">
          <mxGeometry x="690" width="190" height="56" as="geometry" />
        </mxCell>
        <mxCell id="tYt1xrvJ3s9ZFV79zrZ--85" value="" style="shape=partialRectangle;collapsible=0;dropTarget=0;pointerEvents=0;fillColor=none;top=0;left=0;bottom=0;right=0;points=[[0,0.5],[1,0.5]];portConstraint=eastwest;" parent="tYt1xrvJ3s9ZFV79zrZ--63" vertex="1">
          <mxGeometry y="176" width="880" height="54" as="geometry" />
        </mxCell>
        <mxCell id="tYt1xrvJ3s9ZFV79zrZ--86" style="shape=partialRectangle;connectable=0;fillColor=none;top=0;left=0;bottom=0;right=0;editable=1;overflow=hidden;" parent="tYt1xrvJ3s9ZFV79zrZ--85" vertex="1">
          <mxGeometry width="80" height="54" as="geometry" />
        </mxCell>
        <mxCell id="tYt1xrvJ3s9ZFV79zrZ--87" value="" style="shape=partialRectangle;connectable=0;fillColor=none;top=0;left=0;bottom=0;right=0;editable=1;overflow=hidden;" parent="tYt1xrvJ3s9ZFV79zrZ--85" vertex="1">
          <mxGeometry x="80" width="100" height="54" as="geometry" />
        </mxCell>
        <mxCell id="tYt1xrvJ3s9ZFV79zrZ--88" value="" style="shape=partialRectangle;connectable=0;fillColor=none;top=0;left=0;bottom=0;right=0;align=left;spacingLeft=6;overflow=hidden;" parent="tYt1xrvJ3s9ZFV79zrZ--85" vertex="1">
          <mxGeometry x="180" width="130" height="54" as="geometry" />
        </mxCell>
        <mxCell id="tYt1xrvJ3s9ZFV79zrZ--89" style="shape=partialRectangle;connectable=0;fillColor=none;top=0;left=0;bottom=0;right=0;align=left;spacingLeft=6;overflow=hidden;" parent="tYt1xrvJ3s9ZFV79zrZ--85" vertex="1">
          <mxGeometry x="310" width="190" height="54" as="geometry" />
        </mxCell>
        <mxCell id="tYt1xrvJ3s9ZFV79zrZ--90" style="shape=partialRectangle;connectable=0;fillColor=none;top=0;left=0;bottom=0;right=0;align=left;spacingLeft=6;overflow=hidden;" parent="tYt1xrvJ3s9ZFV79zrZ--85" vertex="1">
          <mxGeometry x="500" width="190" height="54" as="geometry" />
        </mxCell>
        <mxCell id="tYt1xrvJ3s9ZFV79zrZ--91" style="shape=partialRectangle;connectable=0;fillColor=none;top=0;left=0;bottom=0;right=0;align=left;spacingLeft=6;overflow=hidden;" parent="tYt1xrvJ3s9ZFV79zrZ--85" vertex="1">
          <mxGeometry x="690" width="190" height="54" as="geometry" />
        </mxCell>
        <mxCell id="tYt1xrvJ3s9ZFV79zrZ--34" value="Personel" style="shape=table;startSize=40;container=1;collapsible=1;childLayout=tableLayout;fixedRows=3;rowLines=0;fontStyle=1;align=center;resizeLast=1;fillColor=#7EA6E0;" parent="1" vertex="1">
          <mxGeometry x="380" y="-1120" width="1450" height="210" as="geometry">
            <mxRectangle x="320" y="290" width="60" height="30" as="alternateBounds" />
          </mxGeometry>
        </mxCell>
        <mxCell id="tYt1xrvJ3s9ZFV79zrZ--35" value="" style="shape=partialRectangle;collapsible=0;dropTarget=0;pointerEvents=0;fillColor=none;top=0;left=0;bottom=0;right=0;points=[[0,0.5],[1,0.5]];portConstraint=eastwest;" parent="tYt1xrvJ3s9ZFV79zrZ--34" vertex="1">
          <mxGeometry y="40" width="1450" height="40" as="geometry" />
        </mxCell>
        <mxCell id="tYt1xrvJ3s9ZFV79zrZ--36" value="ID" style="shape=partialRectangle;connectable=0;fillColor=#9AC7BF;top=0;left=0;bottom=0;right=0;fontStyle=1;overflow=hidden;" parent="tYt1xrvJ3s9ZFV79zrZ--35" vertex="1">
          <mxGeometry width="80" height="40" as="geometry" />
        </mxCell>
        <mxCell id="tYt1xrvJ3s9ZFV79zrZ--37" value="Imię" style="shape=partialRectangle;connectable=0;fillColor=none;top=0;left=0;bottom=0;right=0;fontStyle=1;overflow=hidden;" parent="tYt1xrvJ3s9ZFV79zrZ--35" vertex="1">
          <mxGeometry x="80" width="100" height="40" as="geometry" />
        </mxCell>
        <mxCell id="tYt1xrvJ3s9ZFV79zrZ--38" value="Nazwisko" style="shape=partialRectangle;connectable=0;fillColor=none;top=0;left=0;bottom=0;right=0;align=left;spacingLeft=6;fontStyle=5;overflow=hidden;" parent="tYt1xrvJ3s9ZFV79zrZ--35" vertex="1">
          <mxGeometry x="180" width="130" height="40" as="geometry" />
        </mxCell>
        <mxCell id="tYt1xrvJ3s9ZFV79zrZ--39" value="Stanowisko" style="shape=partialRectangle;connectable=0;fillColor=none;top=0;left=0;bottom=0;right=0;align=left;spacingLeft=6;fontStyle=5;overflow=hidden;" parent="tYt1xrvJ3s9ZFV79zrZ--35" vertex="1">
          <mxGeometry x="310" width="190" height="40" as="geometry" />
        </mxCell>
        <mxCell id="tYt1xrvJ3s9ZFV79zrZ--40" value="Wynagrodzenie" style="shape=partialRectangle;connectable=0;fillColor=none;top=0;left=0;bottom=0;right=0;align=left;spacingLeft=6;fontStyle=5;overflow=hidden;" parent="tYt1xrvJ3s9ZFV79zrZ--35" vertex="1">
          <mxGeometry x="500" width="190" height="40" as="geometry" />
        </mxCell>
        <mxCell id="tYt1xrvJ3s9ZFV79zrZ--41" value="Rodzaj Umowy" style="shape=partialRectangle;connectable=0;fillColor=none;top=0;left=0;bottom=0;right=0;align=left;spacingLeft=6;fontStyle=5;overflow=hidden;" parent="tYt1xrvJ3s9ZFV79zrZ--35" vertex="1">
          <mxGeometry x="690" width="190" height="40" as="geometry" />
        </mxCell>
        <mxCell id="tYt1xrvJ3s9ZFV79zrZ--201" value="Liczba godz. pracy w umowie" style="shape=partialRectangle;connectable=0;fillColor=none;top=0;left=0;bottom=0;right=0;align=left;spacingLeft=6;fontStyle=5;overflow=hidden;" parent="tYt1xrvJ3s9ZFV79zrZ--35" vertex="1">
          <mxGeometry x="880" width="190" height="40" as="geometry" />
        </mxCell>
        <mxCell id="tYt1xrvJ3s9ZFV79zrZ--205" value="Data wygaśnięcia umowy " style="shape=partialRectangle;connectable=0;fillColor=none;top=0;left=0;bottom=0;right=0;align=left;spacingLeft=6;fontStyle=5;overflow=hidden;" parent="tYt1xrvJ3s9ZFV79zrZ--35" vertex="1">
          <mxGeometry x="1070" width="190" height="40" as="geometry" />
        </mxCell>
        <mxCell id="tYt1xrvJ3s9ZFV79zrZ--209" value="Urlopy" style="shape=partialRectangle;connectable=0;fillColor=none;top=0;left=0;bottom=0;right=0;align=left;spacingLeft=6;fontStyle=5;overflow=hidden;" parent="tYt1xrvJ3s9ZFV79zrZ--35" vertex="1">
          <mxGeometry x="1260" width="190" height="40" as="geometry" />
        </mxCell>
        <mxCell id="tYt1xrvJ3s9ZFV79zrZ--42" value="" style="shape=partialRectangle;collapsible=0;dropTarget=0;pointerEvents=0;fillColor=none;top=0;left=0;bottom=1;right=0;points=[[0,0.5],[1,0.5]];portConstraint=eastwest;" parent="tYt1xrvJ3s9ZFV79zrZ--34" vertex="1">
          <mxGeometry y="80" width="1450" height="20" as="geometry" />
        </mxCell>
        <mxCell id="tYt1xrvJ3s9ZFV79zrZ--43" style="shape=partialRectangle;connectable=0;fillColor=none;top=0;left=0;bottom=0;right=0;fontStyle=1;overflow=hidden;" parent="tYt1xrvJ3s9ZFV79zrZ--42" vertex="1">
          <mxGeometry width="80" height="20" as="geometry" />
        </mxCell>
        <mxCell id="tYt1xrvJ3s9ZFV79zrZ--44" value="" style="shape=partialRectangle;connectable=0;fillColor=none;top=0;left=0;bottom=0;right=0;fontStyle=1;overflow=hidden;" parent="tYt1xrvJ3s9ZFV79zrZ--42" vertex="1">
          <mxGeometry x="80" width="100" height="20" as="geometry" />
        </mxCell>
        <mxCell id="tYt1xrvJ3s9ZFV79zrZ--45" value="" style="shape=partialRectangle;connectable=0;fillColor=none;top=0;left=0;bottom=0;right=0;align=left;spacingLeft=6;fontStyle=5;overflow=hidden;" parent="tYt1xrvJ3s9ZFV79zrZ--42" vertex="1">
          <mxGeometry x="180" width="130" height="20" as="geometry" />
        </mxCell>
        <mxCell id="tYt1xrvJ3s9ZFV79zrZ--46" style="shape=partialRectangle;connectable=0;fillColor=none;top=0;left=0;bottom=0;right=0;align=left;spacingLeft=6;fontStyle=5;overflow=hidden;" parent="tYt1xrvJ3s9ZFV79zrZ--42" vertex="1">
          <mxGeometry x="310" width="190" height="20" as="geometry" />
        </mxCell>
        <mxCell id="tYt1xrvJ3s9ZFV79zrZ--47" style="shape=partialRectangle;connectable=0;fillColor=none;top=0;left=0;bottom=0;right=0;align=left;spacingLeft=6;fontStyle=5;overflow=hidden;" parent="tYt1xrvJ3s9ZFV79zrZ--42" vertex="1">
          <mxGeometry x="500" width="190" height="20" as="geometry" />
        </mxCell>
        <mxCell id="tYt1xrvJ3s9ZFV79zrZ--48" style="shape=partialRectangle;connectable=0;fillColor=none;top=0;left=0;bottom=0;right=0;align=left;spacingLeft=6;fontStyle=5;overflow=hidden;" parent="tYt1xrvJ3s9ZFV79zrZ--42" vertex="1">
          <mxGeometry x="690" width="190" height="20" as="geometry" />
        </mxCell>
        <mxCell id="tYt1xrvJ3s9ZFV79zrZ--202" style="shape=partialRectangle;connectable=0;fillColor=none;top=0;left=0;bottom=0;right=0;align=left;spacingLeft=6;fontStyle=5;overflow=hidden;" parent="tYt1xrvJ3s9ZFV79zrZ--42" vertex="1">
          <mxGeometry x="880" width="190" height="20" as="geometry" />
        </mxCell>
        <mxCell id="tYt1xrvJ3s9ZFV79zrZ--206" style="shape=partialRectangle;connectable=0;fillColor=none;top=0;left=0;bottom=0;right=0;align=left;spacingLeft=6;fontStyle=5;overflow=hidden;" parent="tYt1xrvJ3s9ZFV79zrZ--42" vertex="1">
          <mxGeometry x="1070" width="190" height="20" as="geometry" />
        </mxCell>
        <mxCell id="tYt1xrvJ3s9ZFV79zrZ--210" style="shape=partialRectangle;connectable=0;fillColor=none;top=0;left=0;bottom=0;right=0;align=left;spacingLeft=6;fontStyle=5;overflow=hidden;" parent="tYt1xrvJ3s9ZFV79zrZ--42" vertex="1">
          <mxGeometry x="1260" width="190" height="20" as="geometry" />
        </mxCell>
        <mxCell id="tYt1xrvJ3s9ZFV79zrZ--49" value="" style="shape=partialRectangle;collapsible=0;dropTarget=0;pointerEvents=0;fillColor=none;top=0;left=0;bottom=0;right=0;points=[[0,0.5],[1,0.5]];portConstraint=eastwest;" parent="tYt1xrvJ3s9ZFV79zrZ--34" vertex="1">
          <mxGeometry y="100" width="1450" height="56" as="geometry" />
        </mxCell>
        <mxCell id="tYt1xrvJ3s9ZFV79zrZ--50" style="shape=partialRectangle;connectable=0;fillColor=none;top=0;left=0;bottom=0;right=0;editable=1;overflow=hidden;" parent="tYt1xrvJ3s9ZFV79zrZ--49" vertex="1">
          <mxGeometry width="80" height="56" as="geometry" />
        </mxCell>
        <mxCell id="tYt1xrvJ3s9ZFV79zrZ--51" value="" style="shape=partialRectangle;connectable=0;fillColor=none;top=0;left=0;bottom=0;right=0;editable=1;overflow=hidden;" parent="tYt1xrvJ3s9ZFV79zrZ--49" vertex="1">
          <mxGeometry x="80" width="100" height="56" as="geometry" />
        </mxCell>
        <mxCell id="tYt1xrvJ3s9ZFV79zrZ--52" value="" style="shape=partialRectangle;connectable=0;fillColor=none;top=0;left=0;bottom=0;right=0;align=left;spacingLeft=6;overflow=hidden;" parent="tYt1xrvJ3s9ZFV79zrZ--49" vertex="1">
          <mxGeometry x="180" width="130" height="56" as="geometry" />
        </mxCell>
        <mxCell id="tYt1xrvJ3s9ZFV79zrZ--53" value="" style="shape=partialRectangle;connectable=0;fillColor=none;top=0;left=0;bottom=0;right=0;align=left;spacingLeft=6;overflow=hidden;" parent="tYt1xrvJ3s9ZFV79zrZ--49" vertex="1">
          <mxGeometry x="310" width="190" height="56" as="geometry" />
        </mxCell>
        <mxCell id="tYt1xrvJ3s9ZFV79zrZ--54" style="shape=partialRectangle;connectable=0;fillColor=none;top=0;left=0;bottom=0;right=0;align=left;spacingLeft=6;overflow=hidden;" parent="tYt1xrvJ3s9ZFV79zrZ--49" vertex="1">
          <mxGeometry x="500" width="190" height="56" as="geometry" />
        </mxCell>
        <mxCell id="tYt1xrvJ3s9ZFV79zrZ--55" style="shape=partialRectangle;connectable=0;fillColor=none;top=0;left=0;bottom=0;right=0;align=left;spacingLeft=6;overflow=hidden;" parent="tYt1xrvJ3s9ZFV79zrZ--49" vertex="1">
          <mxGeometry x="690" width="190" height="56" as="geometry" />
        </mxCell>
        <mxCell id="tYt1xrvJ3s9ZFV79zrZ--203" style="shape=partialRectangle;connectable=0;fillColor=none;top=0;left=0;bottom=0;right=0;align=left;spacingLeft=6;overflow=hidden;" parent="tYt1xrvJ3s9ZFV79zrZ--49" vertex="1">
          <mxGeometry x="880" width="190" height="56" as="geometry" />
        </mxCell>
        <mxCell id="tYt1xrvJ3s9ZFV79zrZ--207" style="shape=partialRectangle;connectable=0;fillColor=none;top=0;left=0;bottom=0;right=0;align=left;spacingLeft=6;overflow=hidden;" parent="tYt1xrvJ3s9ZFV79zrZ--49" vertex="1">
          <mxGeometry x="1070" width="190" height="56" as="geometry" />
        </mxCell>
        <mxCell id="tYt1xrvJ3s9ZFV79zrZ--211" style="shape=partialRectangle;connectable=0;fillColor=none;top=0;left=0;bottom=0;right=0;align=left;spacingLeft=6;overflow=hidden;" parent="tYt1xrvJ3s9ZFV79zrZ--49" vertex="1">
          <mxGeometry x="1260" width="190" height="56" as="geometry" />
        </mxCell>
        <mxCell id="tYt1xrvJ3s9ZFV79zrZ--56" value="" style="shape=partialRectangle;collapsible=0;dropTarget=0;pointerEvents=0;fillColor=none;top=0;left=0;bottom=0;right=0;points=[[0,0.5],[1,0.5]];portConstraint=eastwest;" parent="tYt1xrvJ3s9ZFV79zrZ--34" vertex="1">
          <mxGeometry y="156" width="1450" height="54" as="geometry" />
        </mxCell>
        <mxCell id="tYt1xrvJ3s9ZFV79zrZ--57" style="shape=partialRectangle;connectable=0;fillColor=none;top=0;left=0;bottom=0;right=0;editable=1;overflow=hidden;" parent="tYt1xrvJ3s9ZFV79zrZ--56" vertex="1">
          <mxGeometry width="80" height="54" as="geometry" />
        </mxCell>
        <mxCell id="tYt1xrvJ3s9ZFV79zrZ--58" value="" style="shape=partialRectangle;connectable=0;fillColor=none;top=0;left=0;bottom=0;right=0;editable=1;overflow=hidden;" parent="tYt1xrvJ3s9ZFV79zrZ--56" vertex="1">
          <mxGeometry x="80" width="100" height="54" as="geometry" />
        </mxCell>
        <mxCell id="tYt1xrvJ3s9ZFV79zrZ--59" value="" style="shape=partialRectangle;connectable=0;fillColor=none;top=0;left=0;bottom=0;right=0;align=left;spacingLeft=6;overflow=hidden;" parent="tYt1xrvJ3s9ZFV79zrZ--56" vertex="1">
          <mxGeometry x="180" width="130" height="54" as="geometry" />
        </mxCell>
        <mxCell id="tYt1xrvJ3s9ZFV79zrZ--60" style="shape=partialRectangle;connectable=0;fillColor=none;top=0;left=0;bottom=0;right=0;align=left;spacingLeft=6;overflow=hidden;" parent="tYt1xrvJ3s9ZFV79zrZ--56" vertex="1">
          <mxGeometry x="310" width="190" height="54" as="geometry" />
        </mxCell>
        <mxCell id="tYt1xrvJ3s9ZFV79zrZ--61" style="shape=partialRectangle;connectable=0;fillColor=none;top=0;left=0;bottom=0;right=0;align=left;spacingLeft=6;overflow=hidden;" parent="tYt1xrvJ3s9ZFV79zrZ--56" vertex="1">
          <mxGeometry x="500" width="190" height="54" as="geometry" />
        </mxCell>
        <mxCell id="tYt1xrvJ3s9ZFV79zrZ--62" style="shape=partialRectangle;connectable=0;fillColor=none;top=0;left=0;bottom=0;right=0;align=left;spacingLeft=6;overflow=hidden;" parent="tYt1xrvJ3s9ZFV79zrZ--56" vertex="1">
          <mxGeometry x="690" width="190" height="54" as="geometry" />
        </mxCell>
        <mxCell id="tYt1xrvJ3s9ZFV79zrZ--204" style="shape=partialRectangle;connectable=0;fillColor=none;top=0;left=0;bottom=0;right=0;align=left;spacingLeft=6;overflow=hidden;" parent="tYt1xrvJ3s9ZFV79zrZ--56" vertex="1">
          <mxGeometry x="880" width="190" height="54" as="geometry" />
        </mxCell>
        <mxCell id="tYt1xrvJ3s9ZFV79zrZ--208" style="shape=partialRectangle;connectable=0;fillColor=none;top=0;left=0;bottom=0;right=0;align=left;spacingLeft=6;overflow=hidden;" parent="tYt1xrvJ3s9ZFV79zrZ--56" vertex="1">
          <mxGeometry x="1070" width="190" height="54" as="geometry" />
        </mxCell>
        <mxCell id="tYt1xrvJ3s9ZFV79zrZ--212" style="shape=partialRectangle;connectable=0;fillColor=none;top=0;left=0;bottom=0;right=0;align=left;spacingLeft=6;overflow=hidden;" parent="tYt1xrvJ3s9ZFV79zrZ--56" vertex="1">
          <mxGeometry x="1260" width="190" height="54" as="geometry" />
        </mxCell>
        <mxCell id="tYt1xrvJ3s9ZFV79zrZ--178" value="Wizyty" style="shape=table;startSize=30;container=1;collapsible=1;childLayout=tableLayout;fixedRows=1;rowLines=0;fontStyle=1;align=center;resizeLast=1;shadow=0;strokeColor=#000000;fillColor=#EA6B66;" parent="1" vertex="1">
          <mxGeometry x="1530" y="-590" width="1260" height="130" as="geometry" />
        </mxCell>
        <mxCell id="tYt1xrvJ3s9ZFV79zrZ--182" value="" style="shape=partialRectangle;collapsible=0;dropTarget=0;pointerEvents=0;fillColor=none;top=0;left=0;bottom=1;right=0;points=[[0,0.5],[1,0.5]];portConstraint=eastwest;" parent="tYt1xrvJ3s9ZFV79zrZ--178" vertex="1">
          <mxGeometry y="30" width="1260" height="30" as="geometry" />
        </mxCell>
        <mxCell id="tYt1xrvJ3s9ZFV79zrZ--183" value="Data " style="shape=partialRectangle;connectable=0;fillColor=none;top=0;left=0;bottom=0;right=0;fontStyle=1;overflow=hidden;" parent="tYt1xrvJ3s9ZFV79zrZ--182" vertex="1">
          <mxGeometry width="60" height="30" as="geometry" />
        </mxCell>
        <mxCell id="tYt1xrvJ3s9ZFV79zrZ--184" value="Lekarz" style="shape=partialRectangle;connectable=0;fillColor=none;top=0;left=0;bottom=0;right=0;align=left;spacingLeft=6;fontStyle=5;overflow=hidden;" parent="tYt1xrvJ3s9ZFV79zrZ--182" vertex="1">
          <mxGeometry x="60" width="180" height="30" as="geometry" />
        </mxCell>
        <mxCell id="tYt1xrvJ3s9ZFV79zrZ--192" value="Opis&#xa;" style="shape=partialRectangle;connectable=0;fillColor=none;top=0;left=0;bottom=0;right=0;align=left;spacingLeft=6;fontStyle=5;overflow=hidden;" parent="tYt1xrvJ3s9ZFV79zrZ--182" vertex="1">
          <mxGeometry x="240" width="150" height="30" as="geometry" />
        </mxCell>
        <mxCell id="tYt1xrvJ3s9ZFV79zrZ--195" value="Pacjient" style="shape=partialRectangle;connectable=0;fillColor=none;top=0;left=0;bottom=0;right=0;align=left;spacingLeft=6;fontStyle=5;overflow=hidden;" parent="tYt1xrvJ3s9ZFV79zrZ--182" vertex="1">
          <mxGeometry x="390" width="250" height="30" as="geometry" />
        </mxCell>
        <mxCell id="tYt1xrvJ3s9ZFV79zrZ--198" value="Przepisane leki (zwykły opis bez dodatkowych tabeli) " style="shape=partialRectangle;connectable=0;fillColor=none;top=0;left=0;bottom=0;right=0;align=left;spacingLeft=6;fontStyle=5;overflow=hidden;" parent="tYt1xrvJ3s9ZFV79zrZ--182" vertex="1">
          <mxGeometry x="640" width="310" height="30" as="geometry" />
        </mxCell>
        <mxCell id="tYt1xrvJ3s9ZFV79zrZ--213" value="Zabiegi&#xa;" style="shape=partialRectangle;connectable=0;fillColor=none;top=0;left=0;bottom=0;right=0;align=left;spacingLeft=6;fontStyle=5;overflow=hidden;" parent="tYt1xrvJ3s9ZFV79zrZ--182" vertex="1">
          <mxGeometry x="950" width="310" height="30" as="geometry" />
        </mxCell>
        <mxCell id="tYt1xrvJ3s9ZFV79zrZ--185" value="" style="shape=partialRectangle;collapsible=0;dropTarget=0;pointerEvents=0;fillColor=none;top=0;left=0;bottom=0;right=0;points=[[0,0.5],[1,0.5]];portConstraint=eastwest;" parent="tYt1xrvJ3s9ZFV79zrZ--178" vertex="1">
          <mxGeometry y="60" width="1260" height="30" as="geometry" />
        </mxCell>
        <mxCell id="tYt1xrvJ3s9ZFV79zrZ--186" value="" style="shape=partialRectangle;connectable=0;fillColor=none;top=0;left=0;bottom=0;right=0;editable=1;overflow=hidden;" parent="tYt1xrvJ3s9ZFV79zrZ--185" vertex="1">
          <mxGeometry width="60" height="30" as="geometry" />
        </mxCell>
        <mxCell id="tYt1xrvJ3s9ZFV79zrZ--187" value="" style="shape=partialRectangle;connectable=0;fillColor=none;top=0;left=0;bottom=0;right=0;align=left;spacingLeft=6;overflow=hidden;" parent="tYt1xrvJ3s9ZFV79zrZ--185" vertex="1">
          <mxGeometry x="60" width="180" height="30" as="geometry" />
        </mxCell>
        <mxCell id="tYt1xrvJ3s9ZFV79zrZ--193" style="shape=partialRectangle;connectable=0;fillColor=none;top=0;left=0;bottom=0;right=0;align=left;spacingLeft=6;overflow=hidden;" parent="tYt1xrvJ3s9ZFV79zrZ--185" vertex="1">
          <mxGeometry x="240" width="150" height="30" as="geometry" />
        </mxCell>
        <mxCell id="tYt1xrvJ3s9ZFV79zrZ--196" style="shape=partialRectangle;connectable=0;fillColor=none;top=0;left=0;bottom=0;right=0;align=left;spacingLeft=6;overflow=hidden;" parent="tYt1xrvJ3s9ZFV79zrZ--185" vertex="1">
          <mxGeometry x="390" width="250" height="30" as="geometry" />
        </mxCell>
        <mxCell id="tYt1xrvJ3s9ZFV79zrZ--199" style="shape=partialRectangle;connectable=0;fillColor=none;top=0;left=0;bottom=0;right=0;align=left;spacingLeft=6;overflow=hidden;" parent="tYt1xrvJ3s9ZFV79zrZ--185" vertex="1">
          <mxGeometry x="640" width="310" height="30" as="geometry" />
        </mxCell>
        <mxCell id="tYt1xrvJ3s9ZFV79zrZ--214" style="shape=partialRectangle;connectable=0;fillColor=none;top=0;left=0;bottom=0;right=0;align=left;spacingLeft=6;overflow=hidden;" parent="tYt1xrvJ3s9ZFV79zrZ--185" vertex="1">
          <mxGeometry x="950" width="310" height="30" as="geometry" />
        </mxCell>
        <mxCell id="tYt1xrvJ3s9ZFV79zrZ--188" value="" style="shape=partialRectangle;collapsible=0;dropTarget=0;pointerEvents=0;fillColor=none;top=0;left=0;bottom=0;right=0;points=[[0,0.5],[1,0.5]];portConstraint=eastwest;" parent="tYt1xrvJ3s9ZFV79zrZ--178" vertex="1">
          <mxGeometry y="90" width="1260" height="30" as="geometry" />
        </mxCell>
        <mxCell id="tYt1xrvJ3s9ZFV79zrZ--189" value="" style="shape=partialRectangle;connectable=0;fillColor=none;top=0;left=0;bottom=0;right=0;editable=1;overflow=hidden;" parent="tYt1xrvJ3s9ZFV79zrZ--188" vertex="1">
          <mxGeometry width="60" height="30" as="geometry" />
        </mxCell>
        <mxCell id="tYt1xrvJ3s9ZFV79zrZ--190" value="" style="shape=partialRectangle;connectable=0;fillColor=none;top=0;left=0;bottom=0;right=0;align=left;spacingLeft=6;overflow=hidden;" parent="tYt1xrvJ3s9ZFV79zrZ--188" vertex="1">
          <mxGeometry x="60" width="180" height="30" as="geometry" />
        </mxCell>
        <mxCell id="tYt1xrvJ3s9ZFV79zrZ--194" style="shape=partialRectangle;connectable=0;fillColor=none;top=0;left=0;bottom=0;right=0;align=left;spacingLeft=6;overflow=hidden;" parent="tYt1xrvJ3s9ZFV79zrZ--188" vertex="1">
          <mxGeometry x="240" width="150" height="30" as="geometry" />
        </mxCell>
        <mxCell id="tYt1xrvJ3s9ZFV79zrZ--197" style="shape=partialRectangle;connectable=0;fillColor=none;top=0;left=0;bottom=0;right=0;align=left;spacingLeft=6;overflow=hidden;" parent="tYt1xrvJ3s9ZFV79zrZ--188" vertex="1">
          <mxGeometry x="390" width="250" height="30" as="geometry" />
        </mxCell>
        <mxCell id="tYt1xrvJ3s9ZFV79zrZ--200" style="shape=partialRectangle;connectable=0;fillColor=none;top=0;left=0;bottom=0;right=0;align=left;spacingLeft=6;overflow=hidden;" parent="tYt1xrvJ3s9ZFV79zrZ--188" vertex="1">
          <mxGeometry x="640" width="310" height="30" as="geometry" />
        </mxCell>
        <mxCell id="tYt1xrvJ3s9ZFV79zrZ--215" style="shape=partialRectangle;connectable=0;fillColor=none;top=0;left=0;bottom=0;right=0;align=left;spacingLeft=6;overflow=hidden;" parent="tYt1xrvJ3s9ZFV79zrZ--188" vertex="1">
          <mxGeometry x="950" width="310" height="30" as="geometry" />
        </mxCell>
        <mxCell id="tYt1xrvJ3s9ZFV79zrZ--233" value="Zabiegi" style="shape=table;startSize=30;container=1;collapsible=1;childLayout=tableLayout;fixedRows=1;rowLines=0;fontStyle=1;align=center;resizeLast=1;shadow=1;strokeColor=#000000;fillColor=#FFE599;" parent="1" vertex="1">
          <mxGeometry x="1530" y="-410" width="1260" height="160" as="geometry" />
        </mxCell>
        <mxCell id="tYt1xrvJ3s9ZFV79zrZ--234" value="" style="shape=partialRectangle;collapsible=0;dropTarget=0;pointerEvents=0;fillColor=none;top=0;left=0;bottom=0;right=0;points=[[0,0.5],[1,0.5]];portConstraint=eastwest;" parent="tYt1xrvJ3s9ZFV79zrZ--233" vertex="1">
          <mxGeometry y="30" width="1260" height="30" as="geometry" />
        </mxCell>
        <mxCell id="tYt1xrvJ3s9ZFV79zrZ--235" value="" style="shape=partialRectangle;connectable=0;fillColor=none;top=0;left=0;bottom=0;right=0;fontStyle=1;overflow=hidden;" parent="tYt1xrvJ3s9ZFV79zrZ--234" vertex="1">
          <mxGeometry width="60" height="30" as="geometry" />
        </mxCell>
        <mxCell id="tYt1xrvJ3s9ZFV79zrZ--236" value="" style="shape=partialRectangle;connectable=0;fillColor=none;top=0;left=0;bottom=0;right=0;align=left;spacingLeft=6;fontStyle=5;overflow=hidden;" parent="tYt1xrvJ3s9ZFV79zrZ--234" vertex="1">
          <mxGeometry x="60" width="440" height="30" as="geometry" />
        </mxCell>
        <mxCell id="2DJ5W8kyvjCAVYrcy684-1" style="shape=partialRectangle;connectable=0;fillColor=none;top=0;left=0;bottom=0;right=0;align=left;spacingLeft=6;fontStyle=5;overflow=hidden;" vertex="1" parent="tYt1xrvJ3s9ZFV79zrZ--234">
          <mxGeometry x="500" width="440" height="30" as="geometry" />
        </mxCell>
        <mxCell id="2DJ5W8kyvjCAVYrcy684-5" value="Wyniki" style="shape=partialRectangle;connectable=0;fillColor=none;top=0;left=0;bottom=0;right=0;align=left;spacingLeft=6;fontStyle=5;overflow=hidden;" vertex="1" parent="tYt1xrvJ3s9ZFV79zrZ--234">
          <mxGeometry x="940" width="320" height="30" as="geometry" />
        </mxCell>
        <mxCell id="tYt1xrvJ3s9ZFV79zrZ--237" value="" style="shape=partialRectangle;collapsible=0;dropTarget=0;pointerEvents=0;fillColor=none;top=0;left=0;bottom=1;right=0;points=[[0,0.5],[1,0.5]];portConstraint=eastwest;" parent="tYt1xrvJ3s9ZFV79zrZ--233" vertex="1">
          <mxGeometry y="60" width="1260" height="30" as="geometry" />
        </mxCell>
        <mxCell id="tYt1xrvJ3s9ZFV79zrZ--238" value="" style="shape=partialRectangle;connectable=0;fillColor=none;top=0;left=0;bottom=0;right=0;fontStyle=1;overflow=hidden;" parent="tYt1xrvJ3s9ZFV79zrZ--237" vertex="1">
          <mxGeometry width="60" height="30" as="geometry" />
        </mxCell>
        <mxCell id="tYt1xrvJ3s9ZFV79zrZ--239" value="" style="shape=partialRectangle;connectable=0;fillColor=none;top=0;left=0;bottom=0;right=0;align=left;spacingLeft=6;fontStyle=5;overflow=hidden;" parent="tYt1xrvJ3s9ZFV79zrZ--237" vertex="1">
          <mxGeometry x="60" width="440" height="30" as="geometry" />
        </mxCell>
        <mxCell id="2DJ5W8kyvjCAVYrcy684-2" style="shape=partialRectangle;connectable=0;fillColor=none;top=0;left=0;bottom=0;right=0;align=left;spacingLeft=6;fontStyle=5;overflow=hidden;" vertex="1" parent="tYt1xrvJ3s9ZFV79zrZ--237">
          <mxGeometry x="500" width="440" height="30" as="geometry" />
        </mxCell>
        <mxCell id="2DJ5W8kyvjCAVYrcy684-6" style="shape=partialRectangle;connectable=0;fillColor=none;top=0;left=0;bottom=0;right=0;align=left;spacingLeft=6;fontStyle=5;overflow=hidden;" vertex="1" parent="tYt1xrvJ3s9ZFV79zrZ--237">
          <mxGeometry x="940" width="320" height="30" as="geometry" />
        </mxCell>
        <mxCell id="tYt1xrvJ3s9ZFV79zrZ--240" value="" style="shape=partialRectangle;collapsible=0;dropTarget=0;pointerEvents=0;fillColor=none;top=0;left=0;bottom=0;right=0;points=[[0,0.5],[1,0.5]];portConstraint=eastwest;" parent="tYt1xrvJ3s9ZFV79zrZ--233" vertex="1">
          <mxGeometry y="90" width="1260" height="30" as="geometry" />
        </mxCell>
        <mxCell id="tYt1xrvJ3s9ZFV79zrZ--241" value="" style="shape=partialRectangle;connectable=0;fillColor=none;top=0;left=0;bottom=0;right=0;editable=1;overflow=hidden;" parent="tYt1xrvJ3s9ZFV79zrZ--240" vertex="1">
          <mxGeometry width="60" height="30" as="geometry" />
        </mxCell>
        <mxCell id="tYt1xrvJ3s9ZFV79zrZ--242" value="" style="shape=partialRectangle;connectable=0;fillColor=none;top=0;left=0;bottom=0;right=0;align=left;spacingLeft=6;overflow=hidden;" parent="tYt1xrvJ3s9ZFV79zrZ--240" vertex="1">
          <mxGeometry x="60" width="440" height="30" as="geometry" />
        </mxCell>
        <mxCell id="2DJ5W8kyvjCAVYrcy684-3" style="shape=partialRectangle;connectable=0;fillColor=none;top=0;left=0;bottom=0;right=0;align=left;spacingLeft=6;overflow=hidden;" vertex="1" parent="tYt1xrvJ3s9ZFV79zrZ--240">
          <mxGeometry x="500" width="440" height="30" as="geometry" />
        </mxCell>
        <mxCell id="2DJ5W8kyvjCAVYrcy684-7" style="shape=partialRectangle;connectable=0;fillColor=none;top=0;left=0;bottom=0;right=0;align=left;spacingLeft=6;overflow=hidden;" vertex="1" parent="tYt1xrvJ3s9ZFV79zrZ--240">
          <mxGeometry x="940" width="320" height="30" as="geometry" />
        </mxCell>
        <mxCell id="tYt1xrvJ3s9ZFV79zrZ--243" value="" style="shape=partialRectangle;collapsible=0;dropTarget=0;pointerEvents=0;fillColor=none;top=0;left=0;bottom=0;right=0;points=[[0,0.5],[1,0.5]];portConstraint=eastwest;" parent="tYt1xrvJ3s9ZFV79zrZ--233" vertex="1">
          <mxGeometry y="120" width="1260" height="30" as="geometry" />
        </mxCell>
        <mxCell id="tYt1xrvJ3s9ZFV79zrZ--244" value="" style="shape=partialRectangle;connectable=0;fillColor=none;top=0;left=0;bottom=0;right=0;editable=1;overflow=hidden;" parent="tYt1xrvJ3s9ZFV79zrZ--243" vertex="1">
          <mxGeometry width="60" height="30" as="geometry" />
        </mxCell>
        <mxCell id="tYt1xrvJ3s9ZFV79zrZ--245" value="" style="shape=partialRectangle;connectable=0;fillColor=none;top=0;left=0;bottom=0;right=0;align=left;spacingLeft=6;overflow=hidden;" parent="tYt1xrvJ3s9ZFV79zrZ--243" vertex="1">
          <mxGeometry x="60" width="440" height="30" as="geometry" />
        </mxCell>
        <mxCell id="2DJ5W8kyvjCAVYrcy684-4" style="shape=partialRectangle;connectable=0;fillColor=none;top=0;left=0;bottom=0;right=0;align=left;spacingLeft=6;overflow=hidden;" vertex="1" parent="tYt1xrvJ3s9ZFV79zrZ--243">
          <mxGeometry x="500" width="440" height="30" as="geometry" />
        </mxCell>
        <mxCell id="2DJ5W8kyvjCAVYrcy684-8" style="shape=partialRectangle;connectable=0;fillColor=none;top=0;left=0;bottom=0;right=0;align=left;spacingLeft=6;overflow=hidden;" vertex="1" parent="tYt1xrvJ3s9ZFV79zrZ--243">
          <mxGeometry x="940" width="320" height="30" as="geometry" />
        </mxCell>
        <mxCell id="mFzVTqBZSgkaw3Ssy8Cb-1" value="Historia Chorob" style="shape=table;startSize=30;container=1;collapsible=1;childLayout=tableLayout;fixedRows=1;rowLines=0;fontStyle=1;align=center;resizeLast=1;shadow=1;strokeColor=#000000;fillColor=#CCFF99;" vertex="1" parent="1">
          <mxGeometry x="1530" y="-220" width="1260" height="160" as="geometry" />
        </mxCell>
        <mxCell id="mFzVTqBZSgkaw3Ssy8Cb-2" value="" style="shape=partialRectangle;collapsible=0;dropTarget=0;pointerEvents=0;fillColor=none;top=0;left=0;bottom=0;right=0;points=[[0,0.5],[1,0.5]];portConstraint=eastwest;" vertex="1" parent="mFzVTqBZSgkaw3Ssy8Cb-1">
          <mxGeometry y="30" width="1260" height="30" as="geometry" />
        </mxCell>
        <mxCell id="mFzVTqBZSgkaw3Ssy8Cb-3" value="" style="shape=partialRectangle;connectable=0;fillColor=none;top=0;left=0;bottom=0;right=0;fontStyle=1;overflow=hidden;" vertex="1" parent="mFzVTqBZSgkaw3Ssy8Cb-2">
          <mxGeometry width="60" height="30" as="geometry" />
        </mxCell>
        <mxCell id="mFzVTqBZSgkaw3Ssy8Cb-4" value="" style="shape=partialRectangle;connectable=0;fillColor=none;top=0;left=0;bottom=0;right=0;align=left;spacingLeft=6;fontStyle=5;overflow=hidden;" vertex="1" parent="mFzVTqBZSgkaw3Ssy8Cb-2">
          <mxGeometry x="60" width="440" height="30" as="geometry" />
        </mxCell>
        <mxCell id="mFzVTqBZSgkaw3Ssy8Cb-5" style="shape=partialRectangle;connectable=0;fillColor=none;top=0;left=0;bottom=0;right=0;align=left;spacingLeft=6;fontStyle=5;overflow=hidden;" vertex="1" parent="mFzVTqBZSgkaw3Ssy8Cb-2">
          <mxGeometry x="500" width="440" height="30" as="geometry" />
        </mxCell>
        <mxCell id="mFzVTqBZSgkaw3Ssy8Cb-6" value="Wyniki" style="shape=partialRectangle;connectable=0;fillColor=none;top=0;left=0;bottom=0;right=0;align=left;spacingLeft=6;fontStyle=5;overflow=hidden;" vertex="1" parent="mFzVTqBZSgkaw3Ssy8Cb-2">
          <mxGeometry x="940" width="320" height="30" as="geometry" />
        </mxCell>
        <mxCell id="mFzVTqBZSgkaw3Ssy8Cb-7" value="" style="shape=partialRectangle;collapsible=0;dropTarget=0;pointerEvents=0;fillColor=none;top=0;left=0;bottom=1;right=0;points=[[0,0.5],[1,0.5]];portConstraint=eastwest;" vertex="1" parent="mFzVTqBZSgkaw3Ssy8Cb-1">
          <mxGeometry y="60" width="1260" height="30" as="geometry" />
        </mxCell>
        <mxCell id="mFzVTqBZSgkaw3Ssy8Cb-8" value="" style="shape=partialRectangle;connectable=0;fillColor=none;top=0;left=0;bottom=0;right=0;fontStyle=1;overflow=hidden;" vertex="1" parent="mFzVTqBZSgkaw3Ssy8Cb-7">
          <mxGeometry width="60" height="30" as="geometry" />
        </mxCell>
        <mxCell id="mFzVTqBZSgkaw3Ssy8Cb-9" value="" style="shape=partialRectangle;connectable=0;fillColor=none;top=0;left=0;bottom=0;right=0;align=left;spacingLeft=6;fontStyle=5;overflow=hidden;" vertex="1" parent="mFzVTqBZSgkaw3Ssy8Cb-7">
          <mxGeometry x="60" width="440" height="30" as="geometry" />
        </mxCell>
        <mxCell id="mFzVTqBZSgkaw3Ssy8Cb-10" style="shape=partialRectangle;connectable=0;fillColor=none;top=0;left=0;bottom=0;right=0;align=left;spacingLeft=6;fontStyle=5;overflow=hidden;" vertex="1" parent="mFzVTqBZSgkaw3Ssy8Cb-7">
          <mxGeometry x="500" width="440" height="30" as="geometry" />
        </mxCell>
        <mxCell id="mFzVTqBZSgkaw3Ssy8Cb-11" style="shape=partialRectangle;connectable=0;fillColor=none;top=0;left=0;bottom=0;right=0;align=left;spacingLeft=6;fontStyle=5;overflow=hidden;" vertex="1" parent="mFzVTqBZSgkaw3Ssy8Cb-7">
          <mxGeometry x="940" width="320" height="30" as="geometry" />
        </mxCell>
        <mxCell id="mFzVTqBZSgkaw3Ssy8Cb-12" value="" style="shape=partialRectangle;collapsible=0;dropTarget=0;pointerEvents=0;fillColor=none;top=0;left=0;bottom=0;right=0;points=[[0,0.5],[1,0.5]];portConstraint=eastwest;" vertex="1" parent="mFzVTqBZSgkaw3Ssy8Cb-1">
          <mxGeometry y="90" width="1260" height="30" as="geometry" />
        </mxCell>
        <mxCell id="mFzVTqBZSgkaw3Ssy8Cb-13" value="" style="shape=partialRectangle;connectable=0;fillColor=none;top=0;left=0;bottom=0;right=0;editable=1;overflow=hidden;" vertex="1" parent="mFzVTqBZSgkaw3Ssy8Cb-12">
          <mxGeometry width="60" height="30" as="geometry" />
        </mxCell>
        <mxCell id="mFzVTqBZSgkaw3Ssy8Cb-14" value="" style="shape=partialRectangle;connectable=0;fillColor=none;top=0;left=0;bottom=0;right=0;align=left;spacingLeft=6;overflow=hidden;" vertex="1" parent="mFzVTqBZSgkaw3Ssy8Cb-12">
          <mxGeometry x="60" width="440" height="30" as="geometry" />
        </mxCell>
        <mxCell id="mFzVTqBZSgkaw3Ssy8Cb-15" style="shape=partialRectangle;connectable=0;fillColor=none;top=0;left=0;bottom=0;right=0;align=left;spacingLeft=6;overflow=hidden;" vertex="1" parent="mFzVTqBZSgkaw3Ssy8Cb-12">
          <mxGeometry x="500" width="440" height="30" as="geometry" />
        </mxCell>
        <mxCell id="mFzVTqBZSgkaw3Ssy8Cb-16" style="shape=partialRectangle;connectable=0;fillColor=none;top=0;left=0;bottom=0;right=0;align=left;spacingLeft=6;overflow=hidden;" vertex="1" parent="mFzVTqBZSgkaw3Ssy8Cb-12">
          <mxGeometry x="940" width="320" height="30" as="geometry" />
        </mxCell>
        <mxCell id="mFzVTqBZSgkaw3Ssy8Cb-17" value="" style="shape=partialRectangle;collapsible=0;dropTarget=0;pointerEvents=0;fillColor=none;top=0;left=0;bottom=0;right=0;points=[[0,0.5],[1,0.5]];portConstraint=eastwest;" vertex="1" parent="mFzVTqBZSgkaw3Ssy8Cb-1">
          <mxGeometry y="120" width="1260" height="30" as="geometry" />
        </mxCell>
        <mxCell id="mFzVTqBZSgkaw3Ssy8Cb-18" value="" style="shape=partialRectangle;connectable=0;fillColor=none;top=0;left=0;bottom=0;right=0;editable=1;overflow=hidden;" vertex="1" parent="mFzVTqBZSgkaw3Ssy8Cb-17">
          <mxGeometry width="60" height="30" as="geometry" />
        </mxCell>
        <mxCell id="mFzVTqBZSgkaw3Ssy8Cb-19" value="" style="shape=partialRectangle;connectable=0;fillColor=none;top=0;left=0;bottom=0;right=0;align=left;spacingLeft=6;overflow=hidden;" vertex="1" parent="mFzVTqBZSgkaw3Ssy8Cb-17">
          <mxGeometry x="60" width="440" height="30" as="geometry" />
        </mxCell>
        <mxCell id="mFzVTqBZSgkaw3Ssy8Cb-20" style="shape=partialRectangle;connectable=0;fillColor=none;top=0;left=0;bottom=0;right=0;align=left;spacingLeft=6;overflow=hidden;" vertex="1" parent="mFzVTqBZSgkaw3Ssy8Cb-17">
          <mxGeometry x="500" width="440" height="30" as="geometry" />
        </mxCell>
        <mxCell id="mFzVTqBZSgkaw3Ssy8Cb-21" style="shape=partialRectangle;connectable=0;fillColor=none;top=0;left=0;bottom=0;right=0;align=left;spacingLeft=6;overflow=hidden;" vertex="1" parent="mFzVTqBZSgkaw3Ssy8Cb-17">
          <mxGeometry x="940" width="320" height="30" as="geometry" />
        </mxCell>
        <mxCell id="tYt1xrvJ3s9ZFV79zrZ--112" value="Karta Pacjienta" style="shape=table;startSize=40;container=1;collapsible=1;childLayout=tableLayout;fixedRows=3;rowLines=0;fontStyle=1;align=center;resizeLast=1;fillColor=#FFCC99;" parent="1" vertex="1">
          <mxGeometry x="20" y="-590" width="1229.999999999999" height="210" as="geometry">
            <mxRectangle x="320" y="290" width="60" height="30" as="alternateBounds" />
          </mxGeometry>
        </mxCell>
        <mxCell id="tYt1xrvJ3s9ZFV79zrZ--113" value="" style="shape=partialRectangle;collapsible=0;dropTarget=0;pointerEvents=0;fillColor=none;top=0;left=0;bottom=0;right=0;points=[[0,0.5],[1,0.5]];portConstraint=eastwest;" parent="tYt1xrvJ3s9ZFV79zrZ--112" vertex="1">
          <mxGeometry y="40" width="1229.999999999999" height="40" as="geometry" />
        </mxCell>
        <mxCell id="tYt1xrvJ3s9ZFV79zrZ--114" value="Imie" style="shape=partialRectangle;connectable=0;fillColor=none;top=0;left=0;bottom=0;right=0;fontStyle=1;overflow=hidden;" parent="tYt1xrvJ3s9ZFV79zrZ--113" vertex="1">
          <mxGeometry width="80" height="40" as="geometry" />
        </mxCell>
        <mxCell id="tYt1xrvJ3s9ZFV79zrZ--115" value="Nazwisko" style="shape=partialRectangle;connectable=0;fillColor=none;top=0;left=0;bottom=0;right=0;fontStyle=1;overflow=hidden;" parent="tYt1xrvJ3s9ZFV79zrZ--113" vertex="1">
          <mxGeometry x="80" width="100" height="40" as="geometry" />
        </mxCell>
        <mxCell id="tYt1xrvJ3s9ZFV79zrZ--116" value="nr. Telefonu" style="shape=partialRectangle;connectable=0;fillColor=none;top=0;left=0;bottom=0;right=0;align=left;spacingLeft=6;fontStyle=5;overflow=hidden;" parent="tYt1xrvJ3s9ZFV79zrZ--113" vertex="1">
          <mxGeometry x="180" width="130" height="40" as="geometry" />
        </mxCell>
        <mxCell id="tYt1xrvJ3s9ZFV79zrZ--117" value="Email" style="shape=partialRectangle;connectable=0;fillColor=none;top=0;left=0;bottom=0;right=0;align=left;spacingLeft=6;fontStyle=5;overflow=hidden;" parent="tYt1xrvJ3s9ZFV79zrZ--113" vertex="1">
          <mxGeometry x="310" width="100" height="40" as="geometry" />
        </mxCell>
        <mxCell id="tYt1xrvJ3s9ZFV79zrZ--118" value="Data Urodzenia" style="shape=partialRectangle;connectable=0;fillColor=none;top=0;left=0;bottom=0;right=0;align=left;spacingLeft=6;fontStyle=5;overflow=hidden;" parent="tYt1xrvJ3s9ZFV79zrZ--113" vertex="1">
          <mxGeometry x="410" width="120" height="40" as="geometry" />
        </mxCell>
        <mxCell id="tYt1xrvJ3s9ZFV79zrZ--119" value="Płec | Wzrost | Waga" style="shape=partialRectangle;connectable=0;fillColor=none;top=0;left=0;bottom=0;right=0;align=left;spacingLeft=6;fontStyle=5;overflow=hidden;shadow=0;" parent="tYt1xrvJ3s9ZFV79zrZ--113" vertex="1">
          <mxGeometry x="530" width="150" height="40" as="geometry" />
        </mxCell>
        <mxCell id="tYt1xrvJ3s9ZFV79zrZ--141" value="PESEL" style="shape=partialRectangle;connectable=0;fillColor=none;top=0;left=0;bottom=0;right=0;align=left;spacingLeft=6;fontStyle=5;overflow=hidden;shadow=0;" parent="tYt1xrvJ3s9ZFV79zrZ--113" vertex="1">
          <mxGeometry x="680" width="110" height="40" as="geometry" />
        </mxCell>
        <mxCell id="tYt1xrvJ3s9ZFV79zrZ--145" value="Historia Wizyt" style="shape=partialRectangle;connectable=0;fillColor=#EA6B66;top=0;left=0;bottom=0;right=0;align=left;spacingLeft=6;fontStyle=5;overflow=hidden;shadow=0;" parent="tYt1xrvJ3s9ZFV79zrZ--113" vertex="1">
          <mxGeometry x="790" width="159.99999999999994" height="40" as="geometry" />
        </mxCell>
        <mxCell id="tYt1xrvJ3s9ZFV79zrZ--216" value="Historia Zabiegow" style="shape=partialRectangle;connectable=0;fillColor=#FFE599;top=0;left=0;bottom=0;right=0;align=left;spacingLeft=6;fontStyle=5;overflow=hidden;shadow=0;" parent="tYt1xrvJ3s9ZFV79zrZ--113" vertex="1">
          <mxGeometry x="950" width="139.99999999999955" height="40" as="geometry" />
        </mxCell>
        <mxCell id="mFzVTqBZSgkaw3Ssy8Cb-22" value="Historia Chorób" style="shape=partialRectangle;connectable=0;fillColor=#E6FFCC;top=0;left=0;bottom=0;right=0;align=left;spacingLeft=6;fontStyle=5;overflow=hidden;shadow=0;" vertex="1" parent="tYt1xrvJ3s9ZFV79zrZ--113">
          <mxGeometry x="1089.9999999999995" width="139.99999999999955" height="40" as="geometry" />
        </mxCell>
        <mxCell id="tYt1xrvJ3s9ZFV79zrZ--120" value="" style="shape=partialRectangle;collapsible=0;dropTarget=0;pointerEvents=0;fillColor=none;top=0;left=0;bottom=1;right=0;points=[[0,0.5],[1,0.5]];portConstraint=eastwest;" parent="tYt1xrvJ3s9ZFV79zrZ--112" vertex="1">
          <mxGeometry y="80" width="1229.999999999999" height="20" as="geometry" />
        </mxCell>
        <mxCell id="tYt1xrvJ3s9ZFV79zrZ--121" style="shape=partialRectangle;connectable=0;fillColor=none;top=0;left=0;bottom=0;right=0;fontStyle=1;overflow=hidden;" parent="tYt1xrvJ3s9ZFV79zrZ--120" vertex="1">
          <mxGeometry width="80" height="20" as="geometry" />
        </mxCell>
        <mxCell id="tYt1xrvJ3s9ZFV79zrZ--122" value="" style="shape=partialRectangle;connectable=0;fillColor=none;top=0;left=0;bottom=0;right=0;fontStyle=1;overflow=hidden;" parent="tYt1xrvJ3s9ZFV79zrZ--120" vertex="1">
          <mxGeometry x="80" width="100" height="20" as="geometry" />
        </mxCell>
        <mxCell id="tYt1xrvJ3s9ZFV79zrZ--123" value="" style="shape=partialRectangle;connectable=0;fillColor=none;top=0;left=0;bottom=0;right=0;align=left;spacingLeft=6;fontStyle=5;overflow=hidden;" parent="tYt1xrvJ3s9ZFV79zrZ--120" vertex="1">
          <mxGeometry x="180" width="130" height="20" as="geometry" />
        </mxCell>
        <mxCell id="tYt1xrvJ3s9ZFV79zrZ--124" style="shape=partialRectangle;connectable=0;fillColor=none;top=0;left=0;bottom=0;right=0;align=left;spacingLeft=6;fontStyle=5;overflow=hidden;" parent="tYt1xrvJ3s9ZFV79zrZ--120" vertex="1">
          <mxGeometry x="310" width="100" height="20" as="geometry" />
        </mxCell>
        <mxCell id="tYt1xrvJ3s9ZFV79zrZ--125" style="shape=partialRectangle;connectable=0;fillColor=none;top=0;left=0;bottom=0;right=0;align=left;spacingLeft=6;fontStyle=5;overflow=hidden;" parent="tYt1xrvJ3s9ZFV79zrZ--120" vertex="1">
          <mxGeometry x="410" width="120" height="20" as="geometry" />
        </mxCell>
        <mxCell id="tYt1xrvJ3s9ZFV79zrZ--126" style="shape=partialRectangle;connectable=0;fillColor=none;top=0;left=0;bottom=0;right=0;align=left;spacingLeft=6;fontStyle=5;overflow=hidden;" parent="tYt1xrvJ3s9ZFV79zrZ--120" vertex="1">
          <mxGeometry x="530" width="150" height="20" as="geometry" />
        </mxCell>
        <mxCell id="tYt1xrvJ3s9ZFV79zrZ--142" style="shape=partialRectangle;connectable=0;fillColor=none;top=0;left=0;bottom=0;right=0;align=left;spacingLeft=6;fontStyle=5;overflow=hidden;" parent="tYt1xrvJ3s9ZFV79zrZ--120" vertex="1">
          <mxGeometry x="680" width="110" height="20" as="geometry" />
        </mxCell>
        <mxCell id="tYt1xrvJ3s9ZFV79zrZ--146" style="shape=partialRectangle;connectable=0;fillColor=none;top=0;left=0;bottom=0;right=0;align=left;spacingLeft=6;fontStyle=5;overflow=hidden;" parent="tYt1xrvJ3s9ZFV79zrZ--120" vertex="1">
          <mxGeometry x="790" width="159.99999999999994" height="20" as="geometry" />
        </mxCell>
        <mxCell id="tYt1xrvJ3s9ZFV79zrZ--217" style="shape=partialRectangle;connectable=0;fillColor=none;top=0;left=0;bottom=0;right=0;align=left;spacingLeft=6;fontStyle=5;overflow=hidden;" parent="tYt1xrvJ3s9ZFV79zrZ--120" vertex="1">
          <mxGeometry x="950" width="139.99999999999955" height="20" as="geometry" />
        </mxCell>
        <mxCell id="mFzVTqBZSgkaw3Ssy8Cb-23" style="shape=partialRectangle;connectable=0;fillColor=none;top=0;left=0;bottom=0;right=0;align=left;spacingLeft=6;fontStyle=5;overflow=hidden;" vertex="1" parent="tYt1xrvJ3s9ZFV79zrZ--120">
          <mxGeometry x="1089.9999999999995" width="139.99999999999955" height="20" as="geometry" />
        </mxCell>
        <mxCell id="tYt1xrvJ3s9ZFV79zrZ--127" value="" style="shape=partialRectangle;collapsible=0;dropTarget=0;pointerEvents=0;fillColor=none;top=0;left=0;bottom=0;right=0;points=[[0,0.5],[1,0.5]];portConstraint=eastwest;" parent="tYt1xrvJ3s9ZFV79zrZ--112" vertex="1">
          <mxGeometry y="100" width="1229.999999999999" height="56" as="geometry" />
        </mxCell>
        <mxCell id="tYt1xrvJ3s9ZFV79zrZ--128" style="shape=partialRectangle;connectable=0;fillColor=none;top=0;left=0;bottom=0;right=0;editable=1;overflow=hidden;" parent="tYt1xrvJ3s9ZFV79zrZ--127" vertex="1">
          <mxGeometry width="80" height="56" as="geometry" />
        </mxCell>
        <mxCell id="tYt1xrvJ3s9ZFV79zrZ--129" value="" style="shape=partialRectangle;connectable=0;fillColor=none;top=0;left=0;bottom=0;right=0;editable=1;overflow=hidden;" parent="tYt1xrvJ3s9ZFV79zrZ--127" vertex="1">
          <mxGeometry x="80" width="100" height="56" as="geometry" />
        </mxCell>
        <mxCell id="tYt1xrvJ3s9ZFV79zrZ--130" value="" style="shape=partialRectangle;connectable=0;fillColor=none;top=0;left=0;bottom=0;right=0;align=left;spacingLeft=6;overflow=hidden;" parent="tYt1xrvJ3s9ZFV79zrZ--127" vertex="1">
          <mxGeometry x="180" width="130" height="56" as="geometry" />
        </mxCell>
        <mxCell id="tYt1xrvJ3s9ZFV79zrZ--131" value="" style="shape=partialRectangle;connectable=0;fillColor=none;top=0;left=0;bottom=0;right=0;align=left;spacingLeft=6;overflow=hidden;" parent="tYt1xrvJ3s9ZFV79zrZ--127" vertex="1">
          <mxGeometry x="310" width="100" height="56" as="geometry" />
        </mxCell>
        <mxCell id="tYt1xrvJ3s9ZFV79zrZ--132" style="shape=partialRectangle;connectable=0;fillColor=none;top=0;left=0;bottom=0;right=0;align=left;spacingLeft=6;overflow=hidden;" parent="tYt1xrvJ3s9ZFV79zrZ--127" vertex="1">
          <mxGeometry x="410" width="120" height="56" as="geometry" />
        </mxCell>
        <mxCell id="tYt1xrvJ3s9ZFV79zrZ--133" style="shape=partialRectangle;connectable=0;fillColor=none;top=0;left=0;bottom=0;right=0;align=left;spacingLeft=6;overflow=hidden;" parent="tYt1xrvJ3s9ZFV79zrZ--127" vertex="1">
          <mxGeometry x="530" width="150" height="56" as="geometry" />
        </mxCell>
        <mxCell id="tYt1xrvJ3s9ZFV79zrZ--143" style="shape=partialRectangle;connectable=0;fillColor=none;top=0;left=0;bottom=0;right=0;align=left;spacingLeft=6;overflow=hidden;" parent="tYt1xrvJ3s9ZFV79zrZ--127" vertex="1">
          <mxGeometry x="680" width="110" height="56" as="geometry" />
        </mxCell>
        <mxCell id="tYt1xrvJ3s9ZFV79zrZ--147" style="shape=partialRectangle;connectable=0;fillColor=none;top=0;left=0;bottom=0;right=0;align=left;spacingLeft=6;overflow=hidden;" parent="tYt1xrvJ3s9ZFV79zrZ--127" vertex="1">
          <mxGeometry x="790" width="159.99999999999994" height="56" as="geometry" />
        </mxCell>
        <mxCell id="tYt1xrvJ3s9ZFV79zrZ--218" style="shape=partialRectangle;connectable=0;fillColor=none;top=0;left=0;bottom=0;right=0;align=left;spacingLeft=6;overflow=hidden;" parent="tYt1xrvJ3s9ZFV79zrZ--127" vertex="1">
          <mxGeometry x="950" width="139.99999999999955" height="56" as="geometry" />
        </mxCell>
        <mxCell id="mFzVTqBZSgkaw3Ssy8Cb-24" style="shape=partialRectangle;connectable=0;fillColor=none;top=0;left=0;bottom=0;right=0;align=left;spacingLeft=6;overflow=hidden;" vertex="1" parent="tYt1xrvJ3s9ZFV79zrZ--127">
          <mxGeometry x="1089.9999999999995" width="139.99999999999955" height="56" as="geometry" />
        </mxCell>
        <mxCell id="tYt1xrvJ3s9ZFV79zrZ--134" value="" style="shape=partialRectangle;collapsible=0;dropTarget=0;pointerEvents=0;fillColor=none;top=0;left=0;bottom=0;right=0;points=[[0,0.5],[1,0.5]];portConstraint=eastwest;" parent="tYt1xrvJ3s9ZFV79zrZ--112" vertex="1">
          <mxGeometry y="156" width="1229.999999999999" height="54" as="geometry" />
        </mxCell>
        <mxCell id="tYt1xrvJ3s9ZFV79zrZ--135" style="shape=partialRectangle;connectable=0;fillColor=none;top=0;left=0;bottom=0;right=0;editable=1;overflow=hidden;" parent="tYt1xrvJ3s9ZFV79zrZ--134" vertex="1">
          <mxGeometry width="80" height="54" as="geometry" />
        </mxCell>
        <mxCell id="tYt1xrvJ3s9ZFV79zrZ--136" value="" style="shape=partialRectangle;connectable=0;fillColor=none;top=0;left=0;bottom=0;right=0;editable=1;overflow=hidden;" parent="tYt1xrvJ3s9ZFV79zrZ--134" vertex="1">
          <mxGeometry x="80" width="100" height="54" as="geometry" />
        </mxCell>
        <mxCell id="tYt1xrvJ3s9ZFV79zrZ--137" value="" style="shape=partialRectangle;connectable=0;fillColor=none;top=0;left=0;bottom=0;right=0;align=left;spacingLeft=6;overflow=hidden;" parent="tYt1xrvJ3s9ZFV79zrZ--134" vertex="1">
          <mxGeometry x="180" width="130" height="54" as="geometry" />
        </mxCell>
        <mxCell id="tYt1xrvJ3s9ZFV79zrZ--138" style="shape=partialRectangle;connectable=0;fillColor=none;top=0;left=0;bottom=0;right=0;align=left;spacingLeft=6;overflow=hidden;" parent="tYt1xrvJ3s9ZFV79zrZ--134" vertex="1">
          <mxGeometry x="310" width="100" height="54" as="geometry" />
        </mxCell>
        <mxCell id="tYt1xrvJ3s9ZFV79zrZ--139" style="shape=partialRectangle;connectable=0;fillColor=none;top=0;left=0;bottom=0;right=0;align=left;spacingLeft=6;overflow=hidden;" parent="tYt1xrvJ3s9ZFV79zrZ--134" vertex="1">
          <mxGeometry x="410" width="120" height="54" as="geometry" />
        </mxCell>
        <mxCell id="tYt1xrvJ3s9ZFV79zrZ--140" style="shape=partialRectangle;connectable=0;fillColor=none;top=0;left=0;bottom=0;right=0;align=left;spacingLeft=6;overflow=hidden;" parent="tYt1xrvJ3s9ZFV79zrZ--134" vertex="1">
          <mxGeometry x="530" width="150" height="54" as="geometry" />
        </mxCell>
        <mxCell id="tYt1xrvJ3s9ZFV79zrZ--144" style="shape=partialRectangle;connectable=0;fillColor=none;top=0;left=0;bottom=0;right=0;align=left;spacingLeft=6;overflow=hidden;" parent="tYt1xrvJ3s9ZFV79zrZ--134" vertex="1">
          <mxGeometry x="680" width="110" height="54" as="geometry" />
        </mxCell>
        <mxCell id="tYt1xrvJ3s9ZFV79zrZ--148" style="shape=partialRectangle;connectable=0;fillColor=none;top=0;left=0;bottom=0;right=0;align=left;spacingLeft=6;overflow=hidden;" parent="tYt1xrvJ3s9ZFV79zrZ--134" vertex="1">
          <mxGeometry x="790" width="159.99999999999994" height="54" as="geometry" />
        </mxCell>
        <mxCell id="tYt1xrvJ3s9ZFV79zrZ--219" style="shape=partialRectangle;connectable=0;fillColor=none;top=0;left=0;bottom=0;right=0;align=left;spacingLeft=6;overflow=hidden;" parent="tYt1xrvJ3s9ZFV79zrZ--134" vertex="1">
          <mxGeometry x="950" width="139.99999999999955" height="54" as="geometry" />
        </mxCell>
        <mxCell id="mFzVTqBZSgkaw3Ssy8Cb-25" style="shape=partialRectangle;connectable=0;fillColor=none;top=0;left=0;bottom=0;right=0;align=left;spacingLeft=6;overflow=hidden;" vertex="1" parent="tYt1xrvJ3s9ZFV79zrZ--134">
          <mxGeometry x="1089.9999999999995" width="139.99999999999955" height="54" as="geometry" />
        </mxCell>
      </root>
    </mxGraphModel>
  </diagram>
  <diagram id="zTERicJq2f4ux3-w8qxE" name="entity-inheritance">
    <mxGraphModel dx="3651" dy="2205" grid="1" gridSize="10" guides="1" tooltips="1" connect="1" arrows="1" fold="1" page="1" pageScale="1" pageWidth="827" pageHeight="1169" math="0" shadow="0">
      <root>
        <mxCell id="GM21-P_UgqmdVR3tBe20-0" />
        <mxCell id="GM21-P_UgqmdVR3tBe20-1" parent="GM21-P_UgqmdVR3tBe20-0" />
        <mxCell id="GM21-P_UgqmdVR3tBe20-4" value="" style="ellipse;fillColor=#e85642;opacity=60;strokeColor=none;html=1;fontColor=#FFFFFF;" parent="GM21-P_UgqmdVR3tBe20-1" vertex="1">
          <mxGeometry x="-640" y="-640" width="1300" height="1240" as="geometry" />
        </mxCell>
        <mxCell id="GM21-P_UgqmdVR3tBe20-7" value="&lt;h1&gt;&lt;font style=&quot;font-size: 48px&quot;&gt;Personel (Interface)&lt;/font&gt;&lt;/h1&gt;" style="text;fontSize=24;align=center;verticalAlign=middle;html=1;fontColor=#FFFFFF;" parent="GM21-P_UgqmdVR3tBe20-1" vertex="1">
          <mxGeometry x="-70" y="-584" width="190" height="70" as="geometry" />
        </mxCell>
        <mxCell id="GM21-P_UgqmdVR3tBe20-2" value="" style="ellipse;fillColor=#F08705;opacity=60;strokeColor=none;html=1;fontColor=#FFFFFF;" parent="GM21-P_UgqmdVR3tBe20-1" vertex="1">
          <mxGeometry x="-397.5" y="-270" width="815" height="780" as="geometry" />
        </mxCell>
        <mxCell id="hcUnonleuR5IRqHHOATG-0" value="&lt;h2&gt;&lt;font style=&quot;font-size: 36px&quot; color=&quot;#ffffff&quot;&gt;Employee&lt;/font&gt;&lt;/h2&gt;" style="text;html=1;resizable=0;autosize=1;align=center;verticalAlign=middle;points=[];fillColor=none;strokeColor=none;rounded=0;shadow=1;" parent="GM21-P_UgqmdVR3tBe20-1" vertex="1">
          <mxGeometry x="-90" y="-240" width="190" height="60" as="geometry" />
        </mxCell>
        <mxCell id="hcUnonleuR5IRqHHOATG-1" value="" style="ellipse;fillColor=#12AAB5;opacity=60;strokeColor=none;html=1;fontColor=#FFFFFF;" parent="GM21-P_UgqmdVR3tBe20-1" vertex="1">
          <mxGeometry x="-252.5" width="525" height="510" as="geometry" />
        </mxCell>
        <mxCell id="hcUnonleuR5IRqHHOATG-2" value="" style="ellipse;fillColor=#0066CC;opacity=60;strokeColor=none;html=1;fontColor=#FFFFFF;" parent="GM21-P_UgqmdVR3tBe20-1" vertex="1">
          <mxGeometry x="-166.25" y="180" width="342.5" height="330" as="geometry" />
        </mxCell>
        <mxCell id="hcUnonleuR5IRqHHOATG-3" value="&lt;h2&gt;&lt;font style=&quot;font-size: 36px&quot; color=&quot;#ffffff&quot;&gt;Doctor&lt;/font&gt;&lt;/h2&gt;" style="text;html=1;resizable=0;autosize=1;align=center;verticalAlign=middle;points=[];fillColor=none;strokeColor=none;rounded=0;shadow=1;" parent="GM21-P_UgqmdVR3tBe20-1" vertex="1">
          <mxGeometry x="-63.75" y="20" width="130" height="60" as="geometry" />
        </mxCell>
        <mxCell id="hcUnonleuR5IRqHHOATG-4" value="&lt;h2&gt;&lt;font style=&quot;font-size: 36px&quot; color=&quot;#ffffff&quot;&gt;Nurse&lt;/font&gt;&lt;/h2&gt;" style="text;html=1;resizable=0;autosize=1;align=center;verticalAlign=middle;points=[];fillColor=none;strokeColor=none;rounded=0;shadow=1;" parent="GM21-P_UgqmdVR3tBe20-1" vertex="1">
          <mxGeometry x="-58.75" y="210" width="120" height="60" as="geometry" />
        </mxCell>
        <mxCell id="0PS97jXmBXwhuSDL4MeL-0" value="Personel Interface" style="swimlane;fontStyle=0;childLayout=stackLayout;horizontal=1;startSize=26;fillColor=#F19C99;horizontalStack=0;resizeParent=1;resizeParentMax=0;resizeLast=0;collapsible=1;marginBottom=0;shadow=1;strokeColor=#000000;" parent="GM21-P_UgqmdVR3tBe20-1" vertex="1">
          <mxGeometry x="-1500" y="-760" width="670" height="186" as="geometry" />
        </mxCell>
        <mxCell id="0PS97jXmBXwhuSDL4MeL-1" value="+ firstName: String" style="text;strokeColor=none;fillColor=none;align=left;verticalAlign=top;spacingLeft=4;spacingRight=4;overflow=hidden;rotatable=0;points=[[0,0.5],[1,0.5]];portConstraint=eastwest;" parent="0PS97jXmBXwhuSDL4MeL-0" vertex="1">
          <mxGeometry y="26" width="670" height="26" as="geometry" />
        </mxCell>
        <mxCell id="0PS97jXmBXwhuSDL4MeL-2" value="+ lastName: String" style="text;strokeColor=none;fillColor=none;align=left;verticalAlign=top;spacingLeft=4;spacingRight=4;overflow=hidden;rotatable=0;points=[[0,0.5],[1,0.5]];portConstraint=eastwest;" parent="0PS97jXmBXwhuSDL4MeL-0" vertex="1">
          <mxGeometry y="52" width="670" height="26" as="geometry" />
        </mxCell>
        <mxCell id="UH51JGigoQMvdsk9MUm5-20" value="+ typeOfContract: String" style="text;strokeColor=none;fillColor=none;align=left;verticalAlign=top;spacingLeft=4;spacingRight=4;overflow=hidden;rotatable=0;points=[[0,0.5],[1,0.5]];portConstraint=eastwest;" vertex="1" parent="0PS97jXmBXwhuSDL4MeL-0">
          <mxGeometry y="78" width="670" height="26" as="geometry" />
        </mxCell>
        <mxCell id="0PS97jXmBXwhuSDL4MeL-3" value="+ dateOfBirth: Long" style="text;strokeColor=none;fillColor=none;align=left;verticalAlign=top;spacingLeft=4;spacingRight=4;overflow=hidden;rotatable=0;points=[[0,0.5],[1,0.5]];portConstraint=eastwest;" parent="0PS97jXmBXwhuSDL4MeL-0" vertex="1">
          <mxGeometry y="104" width="670" height="82" as="geometry" />
        </mxCell>
        <mxCell id="0PS97jXmBXwhuSDL4MeL-4" value="Employee Abstract Class" style="swimlane;fontStyle=0;childLayout=stackLayout;horizontal=1;startSize=26;fillColor=#FFB570;horizontalStack=0;resizeParent=1;resizeParentMax=0;resizeLast=0;collapsible=1;marginBottom=0;shadow=1;strokeColor=#000000;" parent="GM21-P_UgqmdVR3tBe20-1" vertex="1">
          <mxGeometry x="-1500" y="-520" width="670" height="220" as="geometry" />
        </mxCell>
        <mxCell id="0PS97jXmBXwhuSDL4MeL-5" value="+ employeePosition: String" style="text;strokeColor=none;fillColor=none;align=left;verticalAlign=top;spacingLeft=4;spacingRight=4;overflow=hidden;rotatable=0;points=[[0,0.5],[1,0.5]];portConstraint=eastwest;" parent="0PS97jXmBXwhuSDL4MeL-4" vertex="1">
          <mxGeometry y="26" width="670" height="26" as="geometry" />
        </mxCell>
        <mxCell id="0PS97jXmBXwhuSDL4MeL-6" value="+ employeeID: int" style="text;strokeColor=none;fillColor=none;align=left;verticalAlign=top;spacingLeft=4;spacingRight=4;overflow=hidden;rotatable=0;points=[[0,0.5],[1,0.5]];portConstraint=eastwest;" parent="0PS97jXmBXwhuSDL4MeL-4" vertex="1">
          <mxGeometry y="52" width="670" height="26" as="geometry" />
        </mxCell>
        <mxCell id="UH51JGigoQMvdsk9MUm5-21" value="+ salary: BigDecimal" style="text;strokeColor=none;fillColor=none;align=left;verticalAlign=top;spacingLeft=4;spacingRight=4;overflow=hidden;rotatable=0;points=[[0,0.5],[1,0.5]];portConstraint=eastwest;" vertex="1" parent="0PS97jXmBXwhuSDL4MeL-4">
          <mxGeometry y="78" width="670" height="26" as="geometry" />
        </mxCell>
        <mxCell id="_DH683VO6f9kQ7VBmcbY-0" value="+ patientSearch()" style="text;strokeColor=none;fillColor=none;align=left;verticalAlign=top;spacingLeft=4;spacingRight=4;overflow=hidden;rotatable=0;points=[[0,0.5],[1,0.5]];portConstraint=eastwest;" vertex="1" parent="0PS97jXmBXwhuSDL4MeL-4">
          <mxGeometry y="104" width="670" height="26" as="geometry" />
        </mxCell>
        <mxCell id="_DH683VO6f9kQ7VBmcbY-1" value="+ hireDate: int" style="text;strokeColor=none;fillColor=none;align=left;verticalAlign=top;spacingLeft=4;spacingRight=4;overflow=hidden;rotatable=0;points=[[0,0.5],[1,0.5]];portConstraint=eastwest;" vertex="1" parent="0PS97jXmBXwhuSDL4MeL-4">
          <mxGeometry y="130" width="670" height="30" as="geometry" />
        </mxCell>
        <mxCell id="0PS97jXmBXwhuSDL4MeL-7" value="+ hireDate: int" style="text;strokeColor=none;fillColor=none;align=left;verticalAlign=top;spacingLeft=4;spacingRight=4;overflow=hidden;rotatable=0;points=[[0,0.5],[1,0.5]];portConstraint=eastwest;" parent="0PS97jXmBXwhuSDL4MeL-4" vertex="1">
          <mxGeometry y="160" width="670" height="60" as="geometry" />
        </mxCell>
        <mxCell id="0PS97jXmBXwhuSDL4MeL-8" value="Doctor Class" style="swimlane;fontStyle=0;childLayout=stackLayout;horizontal=1;startSize=26;fillColor=#9AC7BF;horizontalStack=0;resizeParent=1;resizeParentMax=0;resizeLast=0;collapsible=1;marginBottom=0;shadow=1;strokeColor=#000000;" parent="GM21-P_UgqmdVR3tBe20-1" vertex="1">
          <mxGeometry x="-1497" y="-240" width="670" height="120" as="geometry" />
        </mxCell>
        <mxCell id="0PS97jXmBXwhuSDL4MeL-9" value="+ prescribeATreatment()" style="text;strokeColor=none;fillColor=none;align=left;verticalAlign=top;spacingLeft=4;spacingRight=4;overflow=hidden;rotatable=0;points=[[0,0.5],[1,0.5]];portConstraint=eastwest;" parent="0PS97jXmBXwhuSDL4MeL-8" vertex="1">
          <mxGeometry y="26" width="670" height="26" as="geometry" />
        </mxCell>
        <mxCell id="0PS97jXmBXwhuSDL4MeL-10" value="+ sendToMedicalExamination()" style="text;strokeColor=none;fillColor=none;align=left;verticalAlign=top;spacingLeft=4;spacingRight=4;overflow=hidden;rotatable=0;points=[[0,0.5],[1,0.5]];portConstraint=eastwest;" parent="0PS97jXmBXwhuSDL4MeL-8" vertex="1">
          <mxGeometry y="52" width="670" height="26" as="geometry" />
        </mxCell>
        <mxCell id="0PS97jXmBXwhuSDL4MeL-11" value="+ field: type" style="text;strokeColor=none;fillColor=none;align=left;verticalAlign=top;spacingLeft=4;spacingRight=4;overflow=hidden;rotatable=0;points=[[0,0.5],[1,0.5]];portConstraint=eastwest;" parent="0PS97jXmBXwhuSDL4MeL-8" vertex="1">
          <mxGeometry y="78" width="670" height="42" as="geometry" />
        </mxCell>
        <mxCell id="0PS97jXmBXwhuSDL4MeL-12" value="Nurse Class" style="swimlane;fontStyle=0;childLayout=stackLayout;horizontal=1;startSize=26;fillColor=#7EA6E0;horizontalStack=0;resizeParent=1;resizeParentMax=0;resizeLast=0;collapsible=1;marginBottom=0;shadow=1;strokeColor=#000000;" parent="GM21-P_UgqmdVR3tBe20-1" vertex="1">
          <mxGeometry x="-1497" y="-104" width="670" height="150" as="geometry" />
        </mxCell>
        <mxCell id="0PS97jXmBXwhuSDL4MeL-13" value="+ addPatient();" style="text;strokeColor=none;fillColor=none;align=left;verticalAlign=top;spacingLeft=4;spacingRight=4;overflow=hidden;rotatable=0;points=[[0,0.5],[1,0.5]];portConstraint=eastwest;" parent="0PS97jXmBXwhuSDL4MeL-12" vertex="1">
          <mxGeometry y="26" width="670" height="26" as="geometry" />
        </mxCell>
        <mxCell id="0PS97jXmBXwhuSDL4MeL-14" value="+ create(remove/move)PatientCard()" style="text;strokeColor=none;fillColor=none;align=left;verticalAlign=top;spacingLeft=4;spacingRight=4;overflow=hidden;rotatable=0;points=[[0,0.5],[1,0.5]];portConstraint=eastwest;" parent="0PS97jXmBXwhuSDL4MeL-12" vertex="1">
          <mxGeometry y="52" width="670" height="98" as="geometry" />
        </mxCell>
        <mxCell id="0PS97jXmBXwhuSDL4MeL-15" value="+ create(remove/move)Appointment()" style="text;strokeColor=none;fillColor=none;align=left;verticalAlign=top;spacingLeft=4;spacingRight=4;overflow=hidden;rotatable=0;points=[[0,0.5],[1,0.5]];portConstraint=eastwest;" parent="GM21-P_UgqmdVR3tBe20-1" vertex="1">
          <mxGeometry x="-1497" y="-26" width="670" height="66" as="geometry" />
        </mxCell>
        <mxCell id="_DH683VO6f9kQ7VBmcbY-3" value="+ addEntryToMedicalHistory()" style="text;strokeColor=none;fillColor=none;align=left;verticalAlign=top;spacingLeft=4;spacingRight=4;overflow=hidden;rotatable=0;points=[[0,0.5],[1,0.5]];portConstraint=eastwest;" vertex="1" parent="GM21-P_UgqmdVR3tBe20-1">
          <mxGeometry x="-1497" width="670" height="26" as="geometry" />
        </mxCell>
        <mxCell id="4R4Y2xqu-Aj4l6IdL-ZY-0" value="+ searchForADoctor()" style="text;strokeColor=none;fillColor=none;align=left;verticalAlign=top;spacingLeft=4;spacingRight=4;overflow=hidden;rotatable=0;points=[[0,0.5],[1,0.5]];portConstraint=eastwest;" vertex="1" parent="GM21-P_UgqmdVR3tBe20-1">
          <mxGeometry x="-1497" y="20" width="670" height="26" as="geometry" />
        </mxCell>
      </root>
    </mxGraphModel>
  </diagram>
</mxfile>
